<svg width="47" height="45" viewBox="0 0 47 45" fill="none" xmlns="http://www.w3.org/2000/svg">
<g clip-path="url(#clip0_37_100)">
<path d="M34.4544 36.5892C34.5003 36.5892 34.5462 36.593 34.5883 36.6006C34.879 36.0976 35.1429 35.5678 35.38 35.0152C35.3839 35.0038 35.3915 34.9924 35.3953 34.9848C35.7549 34.1425 36.0226 33.266 36.2062 32.359C36.3477 31.654 36.4357 30.9337 36.4663 30.1944H32.1978C32.1213 32.3552 31.471 34.4855 30.2662 36.5854H34.4544V36.5892ZM8.12785 15.4116H7.87923C7.87923 13.3841 7.11808 11.6159 5.59961 10.1029C4.08114 8.58994 2.30257 7.83155 0.271566 7.83155V7.58384C2.3064 7.58384 4.08114 6.82546 5.59961 5.30869C7.11808 3.78811 7.87923 2.01982 7.87923 0H8.12785C8.12785 2.02744 8.889 3.79573 10.4075 5.30869C11.9259 6.82165 13.7045 7.58003 15.7393 7.58003V7.82774C13.7045 7.82774 11.9298 8.58613 10.4075 10.0991C8.889 11.6159 8.12785 13.388 8.12785 15.4116ZM3.60685 24.6913H3.49211C3.49211 23.7652 3.14404 22.9497 2.44409 22.2561C1.74797 21.5587 0.933268 21.2119 0 21.2119V21.0976C0.933268 21.0976 1.74797 20.7508 2.44409 20.0534C3.14022 19.3559 3.49211 18.5442 3.49211 17.622H3.60685C3.60685 18.5518 3.95492 19.3636 4.65104 20.0572C5.34717 20.7508 6.16187 21.1014 7.09513 21.1014V21.2157C6.16569 21.2157 5.34717 21.5625 4.65104 22.2561C3.95109 22.9497 3.60685 23.7614 3.60685 24.6913ZM43.5079 35.1639H43.3932C43.3932 34.2378 43.0451 33.4223 42.349 32.7287C41.6528 32.0351 40.8381 31.6883 39.9049 31.6883V31.5739C40.8343 31.5739 41.6528 31.2271 42.349 30.5297C43.0451 29.8323 43.3932 29.0206 43.3932 28.0983H43.5079C43.5079 29.0282 43.8598 29.8399 44.5559 30.5335C45.252 31.2271 46.0667 31.5777 47 31.5777V31.6921C46.0706 31.6921 45.252 32.0389 44.5559 32.7363C43.856 33.4223 43.5079 34.234 43.5079 35.1639ZM37.346 17.1684H37.1395C37.1395 15.4687 36.5007 13.9825 35.2271 12.7096C33.9534 11.4405 32.4617 10.8041 30.7558 10.8041V10.5983C32.4617 10.5983 33.9534 9.96189 35.2271 8.68902C36.5046 7.41616 37.1395 5.92988 37.1395 4.23399H37.346C37.346 5.93369 37.9848 7.41997 39.2585 8.68902C40.5321 9.95808 42.0238 10.5945 43.7297 10.5945V10.8003C42.0238 10.8003 40.5321 11.4367 39.2585 12.7058C37.9848 13.9863 37.346 15.4726 37.346 17.1684ZM21.3045 2.46189H23.3202V12.904H24.4294L24.6857 14.2073C24.9382 14.2454 25.1868 14.2873 25.4316 14.3369C26.426 14.5351 27.3937 14.8323 28.3308 15.2325C28.3423 15.2363 28.3576 15.2401 28.3691 15.2477C29.3062 15.6479 30.1897 16.1242 31.0159 16.6806C31.842 17.2332 32.607 17.8582 33.307 18.5595C34.0107 19.2569 34.638 20.0191 35.1926 20.8422C35.7472 21.6692 36.2253 22.5457 36.6308 23.4794V23.4832C37.0362 24.4284 37.3422 25.404 37.5411 26.4062C37.7438 27.4123 37.8433 28.4489 37.8433 29.516C37.8433 30.5831 37.7438 31.6197 37.5411 32.6258C37.3422 33.6166 37.0439 34.5808 36.6461 35.5145C36.6423 35.5259 36.6346 35.5412 36.6308 35.5526C36.2292 36.4863 35.7511 37.3666 35.1926 38.1898C34.638 39.013 34.0107 39.7751 33.307 40.4726C32.607 41.1738 31.842 41.8026 31.0159 42.3514C30.1897 42.904 29.3062 43.3841 28.3691 43.7843H28.3652C27.4128 44.1883 26.4375 44.4931 25.4316 44.6913C24.4218 44.8933 23.3814 44.9924 22.3143 44.9924C21.2433 44.9924 20.203 44.8933 19.1932 44.6913C18.1987 44.4931 17.231 44.1959 16.2901 43.7995C16.2786 43.7957 16.2672 43.7919 16.2519 43.7843C15.3148 43.3841 14.4312 42.9078 13.6051 42.3514C12.7789 41.7988 12.0139 41.1738 11.314 40.4726C10.6102 39.7751 9.98291 39.013 9.4283 38.1898C8.8737 37.3628 8.39559 36.4863 7.99015 35.5526V35.5488C7.58472 34.6037 7.27873 33.628 7.07983 32.6219C6.87712 31.6159 6.77767 30.5793 6.77767 29.516C6.77767 28.4489 6.87712 27.4162 7.07983 26.4101C7.27873 25.4192 7.57707 24.455 7.97868 23.5175C7.9825 23.5061 7.98633 23.4947 7.99398 23.4794C8.39559 22.5457 8.8737 21.6654 9.43213 20.8422C9.98674 20.0191 10.614 19.2569 11.3178 18.5595C12.0177 17.8582 12.7827 17.2332 13.6089 16.6806C14.4389 16.128 15.3186 15.6517 16.2557 15.2477C17.2081 14.8437 18.1873 14.5427 19.1932 14.3407C19.4418 14.2912 19.6904 14.2492 19.939 14.2111L20.1953 12.9078H21.3045V2.46189ZM20.4822 43.5328C18.2791 41.6959 16.5196 39.8323 15.2115 37.9459H10.9124C11.3254 38.5023 11.7768 39.0282 12.274 39.5198L12.2778 39.5236C12.9166 40.1639 13.6127 40.7317 14.3624 41.2348C15.1121 41.734 15.9229 42.1723 16.7912 42.5457C16.8027 42.5495 16.8141 42.5572 16.8218 42.561C17.6671 42.9192 18.5468 43.1898 19.4571 43.3689C19.7937 43.4337 20.1379 43.487 20.4822 43.5328ZM8.1508 28.8376H12.45C12.6068 26.7226 13.3144 24.5922 14.5766 22.4466H10.025C9.73812 22.9459 9.47803 23.468 9.24089 24.0168C9.23706 24.0282 9.22941 24.0396 9.22559 24.0473C8.86605 24.8895 8.59831 25.766 8.41471 26.673C8.26937 27.378 8.18522 28.1021 8.1508 28.8376ZM24.0431 15.4916C26.1736 17.3666 27.8833 19.234 29.1761 21.0899H33.7124C33.2993 20.5335 32.848 20.0076 32.3507 19.516L32.3469 19.5122C31.7082 18.872 31.012 18.3041 30.2624 17.8011C29.5127 17.3018 28.7018 16.8636 27.8336 16.4901C27.8221 16.4863 27.8106 16.4787 27.803 16.4748C26.9577 16.1166 26.078 15.846 25.1676 15.6669C24.7966 15.5945 24.4218 15.5373 24.0431 15.4916ZM34.5959 22.4466H30.0444C31.3066 24.5922 32.0142 26.7226 32.171 28.8376H36.4701C36.4357 28.0983 36.3477 27.378 36.21 26.673C36.0265 25.7546 35.7511 24.8666 35.3839 24.0168C35.1467 23.468 34.8866 22.9459 34.5959 22.4466ZM22.9913 16.372V21.0899H27.5008C26.3151 19.5351 24.8158 17.9611 22.9913 16.372ZM22.9913 30.1944V36.5854H28.6827C30.0291 34.4703 30.7558 32.3399 30.8399 30.1944H22.9913ZM22.9913 37.9459V42.721C24.9229 41.1395 26.5063 39.5465 27.7303 37.9459H22.9913ZM21.6296 42.721V37.9459H16.8906C18.1146 39.5465 19.6943 41.1395 21.6296 42.721ZM21.6296 36.5892V30.1944H13.781C13.869 32.3399 14.5919 34.4703 15.9382 36.5854H21.6296V36.5892ZM21.6296 28.8376V22.4466H16.1677C14.7678 24.6075 13.9875 26.7416 13.8116 28.8376H21.6296ZM21.6296 21.0899V16.372C19.809 17.9611 18.3058 19.5351 17.1201 21.0899H21.6296Z" fill="#F2F2F2"/>
</g>
<defs>
<clipPath id="clip0_37_100">
<rect width="47" height="45" fill="white"/>
</clipPath>
</defs>
</svg>
