<svg width="241" height="65" viewBox="0 0 241 65" fill="none" xmlns="http://www.w3.org/2000/svg">
<path d="M5.2 36.22C5.2 36.8867 5.22667 37.4133 5.28 37.8C5.33333 38.1867 5.43333 38.4867 5.58 38.7C5.74 38.9133 5.96 39.0533 6.24 39.12C6.53333 39.1867 6.91333 39.2267 7.38 39.24V40H0.9V39.24C1.36667 39.2267 1.74 39.1867 2.02 39.12C2.31333 39.04 2.54 38.9 2.7 38.7C2.86 38.5 2.96667 38.22 3.02 37.86C3.07333 37.4867 3.1 36.9867 3.1 36.36V28.24C3.1 27.68 3.07333 27.22 3.02 26.86C2.98 26.4867 2.88667 26.1933 2.74 25.98C2.60667 25.7667 2.40667 25.62 2.14 25.54C1.87333 25.4467 1.52667 25.3867 1.1 25.36V24.6H7.18V25.36C6.75333 25.3733 6.40667 25.4267 6.14 25.52C5.88667 25.6133 5.68667 25.7733 5.54 26C5.40667 26.2133 5.31333 26.5133 5.26 26.9C5.22 27.2867 5.2 27.78 5.2 28.38V36.22ZM19.3008 36.42L24.5008 24.6H28.9808V25.36C28.5541 25.3733 28.2074 25.4267 27.9408 25.52C27.6874 25.6133 27.4874 25.7733 27.3408 26C27.2074 26.2133 27.1141 26.5133 27.0608 26.9C27.0208 27.2867 27.0008 27.78 27.0008 28.38V36.22C27.0008 36.8867 27.0274 37.4133 27.0808 37.8C27.1341 38.1867 27.2341 38.4867 27.3808 38.7C27.5408 38.9133 27.7608 39.0533 28.0408 39.12C28.3341 39.1867 28.7141 39.2267 29.1808 39.24V40H22.7008V39.24C23.1674 39.2267 23.5408 39.1867 23.8208 39.12C24.1141 39.04 24.3408 38.9 24.5008 38.7C24.6608 38.5 24.7674 38.22 24.8208 37.86C24.8741 37.4867 24.9008 36.9867 24.9008 36.36V27.08H24.7008L18.8608 40.2H18.4208L12.6808 27.08H12.6008V36.22C12.6008 36.8867 12.6274 37.4133 12.6808 37.8C12.7341 38.1867 12.8341 38.4867 12.9808 38.7C13.1408 38.9133 13.3608 39.0533 13.6408 39.12C13.9341 39.1867 14.3141 39.2267 14.7808 39.24V40H9.20078V39.24C9.66745 39.2267 10.0408 39.1867 10.3208 39.12C10.6141 39.04 10.8408 38.9 11.0008 38.7C11.1608 38.5 11.2674 38.22 11.3208 37.86C11.3741 37.4867 11.4008 36.9867 11.4008 36.36V28.24C11.4008 27.68 11.3741 27.22 11.3208 26.86C11.2808 26.4867 11.1874 26.1933 11.0408 25.98C10.9074 25.7667 10.7074 25.62 10.4408 25.54C10.1741 25.4467 9.82745 25.3867 9.40078 25.36V24.6H14.1808L19.2208 36.42H19.3008ZM43.2577 28.46C43.2577 29.1667 43.1443 29.8 42.9177 30.36C42.691 30.92 42.331 31.3933 41.8377 31.78C41.3577 32.1667 40.7243 32.4667 39.9377 32.68C39.1643 32.8933 38.2177 33 37.0977 33H35.2977V36.86C35.2977 37.3533 35.3243 37.76 35.3777 38.08C35.4443 38.3867 35.571 38.6267 35.7577 38.8C35.9577 38.9733 36.2377 39.0933 36.5977 39.16C36.971 39.2133 37.4577 39.24 38.0577 39.24V40H30.9977V39.24C31.4643 39.2267 31.8377 39.1867 32.1177 39.12C32.411 39.0533 32.6377 38.94 32.7977 38.78C32.9577 38.62 33.0643 38.3933 33.1177 38.1C33.171 37.8067 33.1977 37.4267 33.1977 36.96V27.64C33.1977 27.1733 33.171 26.8 33.1177 26.52C33.0777 26.2267 32.9843 26 32.8377 25.84C32.7043 25.6667 32.5043 25.5533 32.2377 25.5C31.971 25.4333 31.6243 25.3867 31.1977 25.36V24.6H37.4777C39.3177 24.6 40.7377 24.94 41.7377 25.62C42.751 26.3 43.2577 27.2467 43.2577 28.46ZM35.2977 32H36.7177C38.051 32 39.0377 31.7467 39.6777 31.24C40.331 30.72 40.6577 29.8733 40.6577 28.7C40.6577 27.5667 40.3977 26.76 39.8777 26.28C39.371 25.7867 38.571 25.54 37.4777 25.54H35.6377C35.411 25.54 35.2977 25.6533 35.2977 25.88V32ZM52.4358 34.42H47.0958C46.8691 34.9667 46.6758 35.4533 46.5158 35.88C46.3558 36.2933 46.2224 36.6533 46.1158 36.96C46.0224 37.2667 45.9558 37.5267 45.9158 37.74C45.8758 37.9533 45.8558 38.1267 45.8558 38.26C45.8558 38.6333 45.9758 38.8933 46.2158 39.04C46.4558 39.1733 46.8558 39.24 47.4158 39.24V40H42.5558V39.24C42.8624 39.2 43.1224 39.1467 43.3358 39.08C43.5624 39.0133 43.7558 38.92 43.9158 38.8C44.0891 38.68 44.2358 38.5267 44.3558 38.34C44.4891 38.14 44.6158 37.9 44.7358 37.62L49.9358 24.6H50.7958L55.3358 35.88C55.6424 36.6267 55.9091 37.2267 56.1358 37.68C56.3624 38.12 56.5824 38.4533 56.7958 38.68C57.0091 38.9067 57.2358 39.0533 57.4758 39.12C57.7291 39.1867 58.0291 39.22 58.3758 39.22V40H51.8558V39.22C52.5624 39.22 53.0491 39.1533 53.3158 39.02C53.5824 38.8867 53.7158 38.6667 53.7158 38.36C53.7158 38.2267 53.7091 38.1067 53.6958 38C53.6824 37.88 53.6558 37.7533 53.6158 37.62C53.5891 37.4867 53.5424 37.34 53.4758 37.18C53.4224 37.0067 53.3491 36.8067 53.2558 36.58L52.4358 34.42ZM47.4958 33.42H52.0558L49.8358 27.52L47.4958 33.42ZM71.5144 24.6H72.0744L72.2544 29.2H71.5144C71.221 28.0267 70.6544 27.1067 69.8144 26.44C68.9744 25.7733 67.961 25.44 66.7744 25.44C65.961 25.44 65.2344 25.6 64.5944 25.92C63.9544 26.24 63.4144 26.7 62.9744 27.3C62.5344 27.9 62.1944 28.6333 61.9544 29.5C61.7277 30.3667 61.6144 31.3467 61.6144 32.44C61.6144 34.5867 62.061 36.24 62.9544 37.4C63.8477 38.5467 65.141 39.12 66.8344 39.12C69.4077 39.12 71.061 37.7533 71.7944 35.02H72.6144V40H71.9144L71.4544 38.42C70.0544 39.6067 68.361 40.2 66.3744 40.2C65.241 40.2 64.2144 40.02 63.2944 39.66C62.3877 39.3 61.6077 38.7933 60.9544 38.14C60.3144 37.4733 59.8144 36.6667 59.4544 35.72C59.1077 34.7733 58.9344 33.72 58.9344 32.56C58.9344 31.3467 59.121 30.24 59.4944 29.24C59.8677 28.24 60.3877 27.38 61.0544 26.66C61.7344 25.94 62.541 25.3867 63.4744 25C64.421 24.6 65.461 24.4 66.5944 24.4C67.3944 24.4 68.1477 24.5133 68.8544 24.74C69.561 24.9667 70.3277 25.3333 71.1544 25.84L71.5144 24.6ZM89.4895 28.42H88.6695C88.6295 27.8467 88.5362 27.3667 88.3895 26.98C88.2429 26.5933 88.0295 26.2933 87.7495 26.08C87.4829 25.8533 87.1429 25.6933 86.7295 25.6C86.3162 25.5067 85.8229 25.46 85.2495 25.46C84.7562 25.46 84.3562 25.4733 84.0495 25.5C83.7562 25.5133 83.5295 25.5467 83.3695 25.6C83.2095 25.6533 83.1029 25.72 83.0495 25.8C83.0095 25.8667 82.9895 25.96 82.9895 26.08V36.78C82.9895 37.2067 83.0162 37.5733 83.0695 37.88C83.1362 38.1867 83.2562 38.44 83.4295 38.64C83.6162 38.8267 83.8762 38.9733 84.2095 39.08C84.5562 39.1733 85.0095 39.2267 85.5695 39.24V40H78.0095V39.24C78.5695 39.2267 79.0229 39.1733 79.3695 39.08C79.7162 38.9733 79.9762 38.8267 80.1495 38.64C80.3362 38.44 80.4562 38.1867 80.5095 37.88C80.5762 37.5733 80.6095 37.2067 80.6095 36.78V26.08C80.6095 25.96 80.5829 25.8667 80.5295 25.8C80.4895 25.72 80.3962 25.6533 80.2495 25.6C80.1162 25.5467 79.9229 25.5133 79.6695 25.5C79.4162 25.4733 79.0762 25.46 78.6495 25.46C78.1295 25.46 77.6429 25.48 77.1895 25.52C76.7495 25.56 76.3629 25.68 76.0295 25.88C75.7095 26.0667 75.4495 26.36 75.2495 26.76C75.0495 27.16 74.9429 27.7133 74.9295 28.42H74.1895V24.6H89.2895L89.4895 28.42ZM108.121 28.46C108.121 29.1667 108.008 29.8 107.781 30.36C107.554 30.92 107.194 31.3933 106.701 31.78C106.221 32.1667 105.588 32.4667 104.801 32.68C104.028 32.8933 103.081 33 101.961 33H100.161V36.86C100.161 37.3533 100.188 37.76 100.241 38.08C100.308 38.3867 100.434 38.6267 100.621 38.8C100.821 38.9733 101.101 39.0933 101.461 39.16C101.834 39.2133 102.321 39.24 102.921 39.24V40H95.8609V39.24C96.3276 39.2267 96.7009 39.1867 96.9809 39.12C97.2743 39.0533 97.5009 38.94 97.6609 38.78C97.8209 38.62 97.9276 38.3933 97.9809 38.1C98.0343 37.8067 98.0609 37.4267 98.0609 36.96V27.64C98.0609 27.1733 98.0343 26.8 97.9809 26.52C97.9409 26.2267 97.8476 26 97.7009 25.84C97.5676 25.6667 97.3676 25.5533 97.1009 25.5C96.8343 25.4333 96.4876 25.3867 96.0609 25.36V24.6H102.341C104.181 24.6 105.601 24.94 106.601 25.62C107.614 26.3 108.121 27.2467 108.121 28.46ZM100.161 32H101.581C102.914 32 103.901 31.7467 104.541 31.24C105.194 30.72 105.521 29.8733 105.521 28.7C105.521 27.5667 105.261 26.76 104.741 26.28C104.234 25.7867 103.434 25.54 102.341 25.54H100.501C100.274 25.54 100.161 25.6533 100.161 25.88V32ZM124.411 28.42H123.591C123.551 27.8467 123.458 27.3667 123.311 26.98C123.165 26.5933 122.951 26.2933 122.671 26.08C122.405 25.8533 122.065 25.6933 121.651 25.6C121.238 25.5067 120.745 25.46 120.171 25.46C119.678 25.46 119.278 25.4733 118.971 25.5C118.678 25.5133 118.451 25.5467 118.291 25.6C118.131 25.6533 118.025 25.72 117.971 25.8C117.931 25.8667 117.911 25.96 117.911 26.08V36.78C117.911 37.2067 117.938 37.5733 117.991 37.88C118.058 38.1867 118.178 38.44 118.351 38.64C118.538 38.8267 118.798 38.9733 119.131 39.08C119.478 39.1733 119.931 39.2267 120.491 39.24V40H112.931V39.24C113.491 39.2267 113.945 39.1733 114.291 39.08C114.638 38.9733 114.898 38.8267 115.071 38.64C115.258 38.44 115.378 38.1867 115.431 37.88C115.498 37.5733 115.531 37.2067 115.531 36.78V26.08C115.531 25.96 115.505 25.8667 115.451 25.8C115.411 25.72 115.318 25.6533 115.171 25.6C115.038 25.5467 114.845 25.5133 114.591 25.5C114.338 25.4733 113.998 25.46 113.571 25.46C113.051 25.46 112.565 25.48 112.111 25.52C111.671 25.56 111.285 25.68 110.951 25.88C110.631 26.0667 110.371 26.36 110.171 26.76C109.971 27.16 109.865 27.7133 109.851 28.42H109.111V24.6H124.211L124.411 28.42ZM145.745 38.34C145.265 38.9267 144.645 39.3867 143.885 39.72C143.125 40.04 142.305 40.2 141.425 40.2C140.718 40.2 140.065 40.0733 139.465 39.82C138.878 39.5533 138.372 39.1867 137.945 38.72C137.518 38.24 137.185 37.6667 136.945 37C136.718 36.3333 136.605 35.5933 136.605 34.78C136.605 33.9267 136.738 33.16 137.005 32.48C137.272 31.7867 137.645 31.2 138.125 30.72C138.618 30.2267 139.205 29.8533 139.885 29.6C140.578 29.3333 141.338 29.2 142.165 29.2C142.685 29.2 143.158 29.2467 143.585 29.34C144.012 29.42 144.378 29.54 144.685 29.7C145.005 29.8467 145.252 30.0333 145.425 30.26C145.598 30.4733 145.685 30.7067 145.685 30.96C145.685 31.2267 145.598 31.4333 145.425 31.58C145.252 31.7267 145.012 31.8 144.705 31.8C144.465 31.8 144.265 31.7533 144.105 31.66C143.945 31.5533 143.738 31.3267 143.485 30.98C143.218 30.6733 142.958 30.46 142.705 30.34C142.465 30.2067 142.152 30.14 141.765 30.14C140.818 30.14 140.098 30.5067 139.605 31.24C139.125 31.9733 138.885 33.0533 138.885 34.48C138.885 36.0133 139.152 37.18 139.685 37.98C140.232 38.7667 141.025 39.16 142.065 39.16C142.625 39.16 143.152 39.0533 143.645 38.84C144.138 38.6133 144.638 38.2533 145.145 37.76L145.745 38.34ZM161.752 38.04H165.732C166.052 38.04 166.332 38.0133 166.572 37.96C166.812 37.8933 167.025 37.7733 167.212 37.6C167.399 37.4267 167.565 37.1933 167.712 36.9C167.859 36.5933 168.005 36.2067 168.152 35.74H168.892L168.132 40H158.832V39.34C160.352 37.98 161.599 36.7933 162.572 35.78C163.559 34.7533 164.332 33.8333 164.892 33.02C165.452 32.2067 165.839 31.46 166.052 30.78C166.265 30.0867 166.372 29.3867 166.372 28.68C166.372 27.64 166.125 26.82 165.632 26.22C165.152 25.62 164.492 25.32 163.652 25.32C162.852 25.32 162.199 25.58 161.692 26.1C161.199 26.62 160.952 27.2933 160.952 28.12C160.952 28.84 161.145 29.4133 161.532 29.84C161.932 30.2667 162.472 30.48 163.152 30.48C163.085 30.8 162.912 31.06 162.632 31.26C162.352 31.4467 162.005 31.54 161.592 31.54C161.219 31.54 160.872 31.4667 160.552 31.32C160.245 31.1733 159.972 30.9667 159.732 30.7C159.505 30.4333 159.325 30.12 159.192 29.76C159.072 29.3867 159.012 28.98 159.012 28.54C159.012 27.94 159.139 27.3867 159.392 26.88C159.645 26.3733 159.992 25.94 160.432 25.58C160.872 25.2067 161.392 24.9133 161.992 24.7C162.605 24.4867 163.265 24.38 163.972 24.38C164.679 24.38 165.325 24.4867 165.912 24.7C166.499 24.9133 167.005 25.2133 167.432 25.6C167.859 25.9867 168.185 26.4467 168.412 26.98C168.652 27.5 168.772 28.08 168.772 28.72C168.772 29.5467 168.585 30.36 168.212 31.16C167.852 31.9467 167.352 32.7267 166.712 33.5C166.072 34.26 165.325 35.0133 164.472 35.76C163.619 36.4933 162.705 37.22 161.732 37.94L161.752 38.04ZM177.296 24.4C178.11 24.4 178.876 24.6067 179.596 25.02C180.316 25.4333 180.943 26 181.476 26.72C182.01 27.44 182.43 28.2867 182.736 29.26C183.056 30.2333 183.216 31.2867 183.216 32.42C183.216 33.5 183.056 34.5133 182.736 35.46C182.43 36.4067 182.01 37.2333 181.476 37.94C180.943 38.6333 180.316 39.1867 179.596 39.6C178.876 40 178.11 40.2 177.296 40.2C176.483 40.2 175.716 40 174.996 39.6C174.276 39.1867 173.65 38.6333 173.116 37.94C172.583 37.2333 172.156 36.4067 171.836 35.46C171.53 34.5133 171.376 33.5 171.376 32.42C171.376 31.2867 171.53 30.2333 171.836 29.26C172.156 28.2867 172.583 27.44 173.116 26.72C173.65 26 174.276 25.4333 174.996 25.02C175.716 24.6067 176.483 24.4 177.296 24.4ZM177.296 39.24C177.816 39.24 178.276 39.1333 178.676 38.92C179.09 38.7067 179.436 38.34 179.716 37.82C180.01 37.3 180.23 36.6067 180.376 35.74C180.536 34.8733 180.616 33.7867 180.616 32.48C180.616 31.12 180.536 29.9867 180.376 29.08C180.23 28.1733 180.016 27.4467 179.736 26.9C179.456 26.34 179.11 25.9467 178.696 25.72C178.283 25.48 177.816 25.36 177.296 25.36C176.776 25.36 176.31 25.48 175.896 25.72C175.483 25.9467 175.136 26.34 174.856 26.9C174.576 27.4467 174.356 28.1733 174.196 29.08C174.05 29.9867 173.976 31.12 173.976 32.48C173.976 33.7867 174.05 34.8733 174.196 35.74C174.356 36.6067 174.576 37.3 174.856 37.82C175.136 38.34 175.483 38.7067 175.896 38.92C176.31 39.1333 176.776 39.24 177.296 39.24ZM188.354 38.04H192.334C192.654 38.04 192.934 38.0133 193.174 37.96C193.414 37.8933 193.627 37.7733 193.814 37.6C194 37.4267 194.167 37.1933 194.314 36.9C194.46 36.5933 194.607 36.2067 194.754 35.74H195.494L194.734 40H185.434V39.34C186.954 37.98 188.2 36.7933 189.174 35.78C190.16 34.7533 190.934 33.8333 191.494 33.02C192.054 32.2067 192.44 31.46 192.654 30.78C192.867 30.0867 192.974 29.3867 192.974 28.68C192.974 27.64 192.727 26.82 192.234 26.22C191.754 25.62 191.094 25.32 190.254 25.32C189.454 25.32 188.8 25.58 188.294 26.1C187.8 26.62 187.554 27.2933 187.554 28.12C187.554 28.84 187.747 29.4133 188.134 29.84C188.534 30.2667 189.074 30.48 189.754 30.48C189.687 30.8 189.514 31.06 189.234 31.26C188.954 31.4467 188.607 31.54 188.194 31.54C187.82 31.54 187.474 31.4667 187.154 31.32C186.847 31.1733 186.574 30.9667 186.334 30.7C186.107 30.4333 185.927 30.12 185.794 29.76C185.674 29.3867 185.614 28.98 185.614 28.54C185.614 27.94 185.74 27.3867 185.994 26.88C186.247 26.3733 186.594 25.94 187.034 25.58C187.474 25.2067 187.994 24.9133 188.594 24.7C189.207 24.4867 189.867 24.38 190.574 24.38C191.28 24.38 191.927 24.4867 192.514 24.7C193.1 24.9133 193.607 25.2133 194.034 25.6C194.46 25.9867 194.787 26.4467 195.014 26.98C195.254 27.5 195.374 28.08 195.374 28.72C195.374 29.5467 195.187 30.36 194.814 31.16C194.454 31.9467 193.954 32.7267 193.314 33.5C192.674 34.26 191.927 35.0133 191.074 35.76C190.22 36.4933 189.307 37.22 188.334 37.94L188.354 38.04ZM205.338 35.72C205.338 34.6133 205.111 33.76 204.658 33.16C204.218 32.5467 203.591 32.24 202.778 32.24C202.578 32.3467 202.351 32.4333 202.098 32.5C201.858 32.5667 201.638 32.6 201.438 32.6C201.171 32.6 200.951 32.54 200.778 32.42C200.604 32.2867 200.518 32.12 200.518 31.92C200.518 31.7333 200.598 31.5933 200.758 31.5C200.918 31.4067 201.131 31.36 201.398 31.36C201.571 31.36 201.764 31.38 201.978 31.42C202.204 31.46 202.418 31.5133 202.618 31.58C203.338 31.58 203.911 31.26 204.338 30.62C204.778 29.98 204.998 29.1267 204.998 28.06C204.998 26.1933 204.211 25.26 202.638 25.26C201.931 25.26 201.371 25.42 200.958 25.74C200.558 26.06 200.358 26.5 200.358 27.06C200.358 27.5133 200.491 27.88 200.758 28.16C201.024 28.44 201.371 28.58 201.798 28.58C201.731 28.8067 201.564 28.9933 201.298 29.14C201.044 29.2733 200.744 29.34 200.398 29.34C200.104 29.34 199.831 29.2867 199.578 29.18C199.338 29.0733 199.124 28.9267 198.938 28.74C198.764 28.54 198.624 28.3133 198.518 28.06C198.411 27.8067 198.358 27.5267 198.358 27.22C198.358 26.7933 198.458 26.4067 198.658 26.06C198.871 25.7133 199.164 25.42 199.538 25.18C199.911 24.9267 200.358 24.7333 200.878 24.6C201.411 24.4667 201.998 24.4 202.638 24.4C203.358 24.4 204.011 24.4867 204.598 24.66C205.184 24.8333 205.684 25.0733 206.098 25.38C206.511 25.6867 206.831 26.06 207.058 26.5C207.284 26.94 207.398 27.4267 207.398 27.96C207.398 28.4133 207.318 28.84 207.158 29.24C206.998 29.64 206.784 30.0067 206.518 30.34C206.251 30.66 205.931 30.9333 205.558 31.16C205.198 31.3867 204.811 31.5533 204.398 31.66V31.78C204.891 31.9133 205.351 32.1067 205.778 32.36C206.204 32.6133 206.571 32.9133 206.878 33.26C207.184 33.6067 207.424 34 207.598 34.44C207.771 34.88 207.858 35.3533 207.858 35.86C207.858 36.4867 207.724 37.0667 207.458 37.6C207.191 38.12 206.824 38.5733 206.358 38.96C205.891 39.3467 205.331 39.6533 204.678 39.88C204.038 40.0933 203.331 40.2 202.558 40.2C201.864 40.2 201.224 40.1133 200.638 39.94C200.064 39.7533 199.564 39.5067 199.138 39.2C198.711 38.88 198.378 38.5067 198.138 38.08C197.898 37.64 197.778 37.1667 197.778 36.66C197.778 36.3 197.838 35.9667 197.958 35.66C198.078 35.3533 198.238 35.0867 198.438 34.86C198.651 34.62 198.898 34.44 199.178 34.32C199.458 34.1867 199.758 34.12 200.078 34.12C200.451 34.12 200.784 34.2067 201.078 34.38C201.371 34.54 201.551 34.7467 201.618 35C201.111 35 200.698 35.1867 200.378 35.56C200.058 35.92 199.898 36.3867 199.898 36.96C199.898 37.64 200.138 38.1933 200.618 38.62C201.098 39.0467 201.731 39.26 202.518 39.26C203.438 39.26 204.138 38.96 204.618 38.36C205.098 37.7467 205.338 36.8667 205.338 35.72Z" fill="#F2F2F2"/>
<circle cx="141.5" cy="35.5" r="9" stroke="#F2F2F2"/>
</svg>
