<svg width="71" height="49" viewBox="0 0 71 49" fill="none" xmlns="http://www.w3.org/2000/svg">
<g clip-path="url(#clip0_37_46)">
<path d="M58.8198 33.8111C58.2478 33.2438 58.242 32.3138 58.8024 31.7348C59.3629 31.1558 60.2816 31.15 60.8536 31.7173L64.8462 35.7061C65.4183 36.2734 65.424 37.2033 64.8636 37.7823C64.3031 38.3613 63.3844 38.3672 62.8124 37.7999L58.8198 33.8111ZM38.1519 26.9974C37.8168 27.1612 37.4874 27.3425 37.1523 27.5413C36.1585 28.132 35.1762 28.8514 34.1766 29.6819L32.0388 27.2021C32.7784 26.5061 33.5757 25.8745 34.4251 25.3188C35.1011 24.8744 35.806 24.4766 36.5341 24.1374C36.823 23.9912 37.1234 23.8508 37.4181 23.7222C36.0083 21.1955 33.9802 19.3825 31.6805 18.2654C29.3809 17.1483 26.8097 16.7213 24.3078 16.967C21.8175 17.2126 19.4023 18.125 17.4031 19.6924C15.0919 21.5055 13.3354 24.2135 12.6652 27.8045L12.4572 28.9275L11.3536 29.1263C10.2731 29.3193 9.30237 29.5825 8.453 29.9159C7.63253 30.2376 6.89872 30.6353 6.25736 31.1032C5.74312 31.4775 5.30399 31.8986 4.92842 32.3548C3.76705 33.7643 3.22392 35.5306 3.24125 37.3203C3.25281 39.1334 3.83638 40.9698 4.91687 42.4788C5.31555 43.0403 5.78357 43.5491 6.31514 43.9994V44.0053C6.84672 44.4556 7.45341 44.8241 8.14099 45.1107C8.81701 45.3914 9.56238 45.5961 10.3944 45.7131H42.4507C44.0108 45.3329 45.3917 44.8183 46.5589 44.1574C47.7203 43.4965 48.6678 42.6952 49.3843 41.736C50.4879 40.2505 51.031 38.1391 51.0542 35.9809C51.0773 33.7117 50.5341 31.4365 49.471 29.7814C49.1648 29.3076 48.8296 28.8748 48.4772 28.4888C46.8824 26.7518 44.8544 25.9914 42.757 25.9739C41.2258 25.9564 39.6484 26.3307 38.1519 26.9974ZM40.648 22.8507C41.3529 22.7396 42.0636 22.6811 42.7627 22.687C45.7326 22.7045 48.5927 23.7807 50.8519 26.2429C51.3257 26.7576 51.7706 27.3366 52.1866 27.9858C52.3658 28.2666 52.5391 28.559 52.6951 28.869C52.9031 28.483 53.088 28.0853 53.2382 27.6642C53.5907 26.705 53.7814 25.6581 53.7814 24.5644C53.7814 22.1079 52.7991 19.8796 51.2044 18.2712C49.6154 16.6628 47.414 15.6627 44.9873 15.6627C43.4503 15.6627 42.0116 16.0546 40.7693 16.7447C39.7293 17.3237 38.8106 18.1075 38.0768 19.0549C39.0648 20.1486 39.9373 21.4178 40.648 22.8507ZM53.9894 32.6531C54.2032 33.7468 54.3072 34.8755 54.2956 35.9985C54.2667 38.8175 53.5098 41.6307 51.9786 43.6953C50.979 45.0463 49.6906 46.14 48.1478 47.0173C46.6629 47.8596 44.9295 48.4971 42.9881 48.9532L42.6241 49H10.3308L10.1286 48.9825C8.94991 48.8304 7.8752 48.5497 6.91028 48.1461C5.91646 47.7309 5.02665 47.187 4.24084 46.5202H4.22929C3.4897 45.8944 2.83679 45.1809 2.28788 44.4088C0.814492 42.3501 0.0171282 39.8352 -0.000205788 37.332C-0.0175398 34.7995 0.762489 32.2787 2.43811 30.2434C2.98124 29.5825 3.6226 28.9743 4.3564 28.4362C5.21155 27.8104 6.18803 27.2781 7.28585 26.8453C8.04854 26.5471 8.85746 26.2956 9.71838 26.0967C10.6891 22.1898 12.7634 19.1778 15.427 17.0839C17.9174 15.1305 20.9219 13.99 24.0074 13.6859C27.0813 13.3876 30.2476 13.914 33.0846 15.2943C33.9802 15.7271 34.8411 16.2476 35.6558 16.85C36.6381 15.6393 37.8457 14.6158 39.2208 13.8555C40.9427 12.9022 42.9072 12.3641 44.993 12.3641C48.3212 12.3641 51.3315 13.7268 53.5156 15.9376C55.6939 18.1426 57.0459 21.1955 57.0459 24.5644C57.0459 26.0499 56.7802 27.4712 56.3006 28.7929C55.7979 30.1615 55.0641 31.419 54.1396 32.501C54.0876 32.5595 54.0414 32.6063 53.9894 32.6531ZM29.6871 8.49813C29.1151 7.93081 29.1093 7.00087 29.6698 6.42186C30.2303 5.84284 31.149 5.83699 31.721 6.40431L35.7136 10.3931C36.2856 10.9604 36.2914 11.8903 35.7309 12.4694C35.1704 13.0484 34.2517 13.0542 33.6797 12.4869L29.6871 8.49813ZM45.3802 1.4739C45.3744 0.666785 46.0215 0.00588751 46.8247 3.88622e-05C47.622 -0.00580979 48.2749 0.649239 48.2807 1.4622L48.3154 7.14124C48.3212 7.94836 47.674 8.60925 46.8709 8.6151C46.0735 8.62095 45.4206 7.9659 45.4148 7.15294L45.3802 1.4739ZM61.547 7.04181C62.119 6.4745 63.0377 6.48034 63.5982 7.05936C64.1587 7.63838 64.1529 8.56831 63.5809 9.13563L59.5883 13.1244C59.0162 13.6917 58.0975 13.6859 57.5371 13.1069C56.9766 12.5278 56.9824 11.5979 57.5544 11.0306L61.547 7.04181ZM69.5437 22.6109C70.3411 22.6051 70.994 23.2601 70.9998 24.0731C71.0056 24.8802 70.3584 25.5411 69.5553 25.5469L63.9449 25.582C63.1475 25.5879 62.4946 24.9328 62.4888 24.1199C62.483 23.3128 63.1302 22.6519 63.9333 22.646L69.5437 22.6109Z" fill="#F2F2F2"/>
</g>
<defs>
<clipPath id="clip0_37_46">
<rect width="71" height="49" fill="white"/>
</clipPath>
</defs>
</svg>
