<svg width="47" height="47" viewBox="0 0 47 47" fill="none" xmlns="http://www.w3.org/2000/svg">
<g clip-path="url(#clip0_43_105)">
<path d="M0.615854 37.1701L2.6738 35.1123C2.72735 35.0588 2.78473 35.009 2.84211 34.9593L1.36559 33.4829C1.34264 33.46 1.32351 33.437 1.30439 33.4141C0.937169 33.0125 0.753561 32.5037 0.753561 31.9989C0.753561 31.4634 0.96012 30.9279 1.36941 30.5186L3.42736 28.4609C3.48091 28.4073 3.53829 28.3576 3.59567 28.3079L2.11915 26.8315C1.70986 26.4222 1.50712 25.8829 1.50712 25.3474C1.50712 24.8119 1.71368 24.2765 2.11915 23.8672L4.1771 21.8094C4.58639 21.4001 5.12574 21.1974 5.66127 21.1974C6.20062 21.1974 6.73614 21.4001 7.14544 21.8094L25.2041 39.8666C25.6134 40.2759 25.8161 40.8152 25.8161 41.3507C25.8161 41.89 25.6134 42.4255 25.2041 42.8347L23.1462 44.8925C23.1232 44.9155 23.1003 44.9346 23.0773 44.9537C22.6757 45.3209 22.1669 45.5045 21.662 45.5045C21.1265 45.5045 20.591 45.2979 20.1817 44.8925L18.9308 43.6418C18.8849 43.6991 18.8352 43.7565 18.7816 43.8101L16.7237 45.8678C16.7007 45.8908 16.6778 45.9099 16.6548 45.929C16.257 46.2924 15.7483 46.476 15.2395 46.476C14.7002 46.476 14.1646 46.2733 13.7592 45.864L12.0531 44.1581C12.0072 44.2155 11.9575 44.2729 11.9001 44.3264L9.84219 46.3842C9.4329 46.7935 8.89355 46.9962 8.35802 46.9962C7.8225 46.9962 7.28314 46.7935 6.87385 46.3842L0.615854 40.142C0.20656 39.7327 0 39.1934 0 38.658C0 38.1187 0.20656 37.5832 0.615854 37.1701ZM25.1888 3.43473L23.1309 5.49251L23.1117 5.51164C23.0811 5.55371 23.0658 5.60343 23.0658 5.65316C23.0658 5.71053 23.0888 5.77173 23.1309 5.8138L41.1896 23.871C41.2316 23.9131 41.289 23.936 41.3502 23.936C41.4076 23.936 41.4688 23.9131 41.5109 23.871L43.5688 21.8132L43.5879 21.7941C43.6185 21.7559 43.6338 21.7023 43.6338 21.6526C43.6338 21.5914 43.6147 21.534 43.5726 21.4919L40.8453 18.7648L28.4632 6.39136L25.5101 3.43856C25.4681 3.39648 25.4107 3.37354 25.3495 3.37354C25.2883 3.36971 25.2309 3.39266 25.1888 3.43473ZM27.3386 18.0955C27.8511 17.5829 28.685 17.5829 29.2014 18.0955C29.714 18.608 29.714 19.4418 29.2014 19.9582L20.174 28.9772C19.6614 29.4897 18.8275 29.4897 18.3111 28.9772C17.7986 28.4647 17.7986 27.6309 18.3111 27.1145L27.3386 18.0955ZM38.5005 1.93921L36.4425 3.99699C36.3966 4.04289 36.3736 4.10026 36.3736 4.15763C36.3736 4.20736 36.3889 4.25326 36.4195 4.29533L36.4425 4.31828L42.6852 10.5605L42.7043 10.5796C42.7426 10.6102 42.7923 10.6217 42.842 10.6217C42.8994 10.6217 42.9606 10.5987 43.0027 10.5566L45.0606 8.49886C45.1065 8.45296 45.1295 8.39559 45.1295 8.33822C45.1295 8.28084 45.1065 8.21965 45.0645 8.17757L38.8218 1.93921C38.7797 1.89714 38.7223 1.87419 38.6611 1.87419C38.5999 1.87419 38.5425 1.89714 38.5005 1.93921ZM35.119 2.66976L37.1769 0.611979C37.5862 0.202718 38.1256 0 38.6611 0C39.1966 0 39.736 0.202718 40.1453 0.611979L46.388 6.85417C46.7934 7.2596 47 7.79891 46.9962 8.33439C46.9962 8.8737 46.7934 9.413 46.388 9.81844L44.33 11.8762C44.2765 11.9298 44.2191 11.9795 44.1617 12.0292L45.8677 13.7351C46.277 14.1444 46.4798 14.6837 46.4798 15.2192C46.4798 15.7585 46.2732 16.2939 45.8677 16.7032L43.8098 18.761C43.7562 18.8145 43.6989 18.8643 43.6415 18.9102L44.8923 20.1609C45.3016 20.5702 45.5044 21.1056 45.5044 21.6411C45.5044 22.1498 45.3207 22.6585 44.9535 23.0563C44.9344 23.0793 44.9153 23.1022 44.8923 23.1252L42.8344 25.1829C42.4251 25.5922 41.8857 25.7949 41.3502 25.7949C40.8109 25.7949 40.2753 25.5884 39.866 25.1829L21.8074 7.13721C21.3981 6.72795 21.1915 6.18864 21.1915 5.65316C21.1915 5.14445 21.3751 4.63574 21.7423 4.23796C21.7615 4.21501 21.7806 4.19206 21.8035 4.16911L23.8615 2.11133C24.2708 1.70207 24.8063 1.49935 25.3418 1.49935C25.8812 1.49935 26.4167 1.70589 26.826 2.11133L28.3025 3.58773C28.3484 3.53035 28.3981 3.47298 28.4555 3.41943L30.5135 1.36165C30.9228 0.952393 31.4621 0.74585 31.9976 0.74585C32.537 0.74585 33.0725 0.952393 33.4818 1.36165L34.9583 2.83805C35.0157 2.78068 35.0654 2.72331 35.119 2.66976ZM31.8446 2.68888L29.7867 4.74666C29.7446 4.78874 29.7217 4.84611 29.7217 4.90731C29.7217 4.96468 29.7408 5.02205 29.7829 5.06413L29.7867 5.06795L42.165 17.4452C42.2071 17.4873 42.2644 17.5103 42.3256 17.5103C42.3868 17.5103 42.4442 17.4911 42.4863 17.4491L44.5442 15.3913C44.5863 15.3492 44.6093 15.2918 44.6093 15.2306C44.6093 15.1733 44.5863 15.1121 44.5442 15.07L41.3655 11.8915L32.1659 2.68888C32.1239 2.64681 32.0627 2.62386 32.0053 2.62386C31.9441 2.62386 31.8867 2.64299 31.8446 2.68888ZM6.39188 28.4609L18.7702 40.8381L21.4899 43.5576C21.5319 43.5997 21.5931 43.6188 21.6505 43.6188C21.7003 43.6188 21.75 43.6035 21.7921 43.5729L21.8112 43.5538L23.8691 41.496C23.9112 41.4539 23.9342 41.3966 23.9342 41.3354C23.9342 41.278 23.9112 41.2168 23.8691 41.1747L5.81428 23.129C5.7722 23.0869 5.71482 23.064 5.65362 23.064C5.59624 23.064 5.53504 23.0869 5.49296 23.129L3.43501 25.1868C3.39294 25.2288 3.37381 25.29 3.37381 25.3474C3.37381 25.4048 3.39676 25.466 3.43884 25.5081L6.39188 28.4609ZM17.4658 42.1845L17.4467 42.1654L5.06454 29.7843L5.04159 29.7613C4.99951 29.7307 4.95361 29.7154 4.90388 29.7154C4.8465 29.7154 4.78913 29.7384 4.74322 29.7843L2.68528 31.842C2.6432 31.8841 2.62407 31.9453 2.62407 32.0027C2.62407 32.0524 2.63937 32.1021 2.66998 32.1442L2.6891 32.1633L5.64214 35.1161L11.8848 41.3583L15.0674 44.5406C15.1133 44.5865 15.1707 44.6056 15.228 44.6056C15.2778 44.6056 15.3275 44.5903 15.3696 44.5597L15.3887 44.5406L17.4467 42.4828C17.4887 42.4408 17.5079 42.3796 17.5079 42.3222C17.5079 42.2725 17.4926 42.2227 17.4658 42.1845ZM3.99731 36.4395L1.93937 38.4973C1.89729 38.5394 1.87434 38.5968 1.87434 38.658C1.87434 38.7192 1.89729 38.7765 1.93937 38.8186L8.18206 45.0608C8.22414 45.1029 8.28152 45.1258 8.34272 45.1258C8.4001 45.1258 8.4613 45.1029 8.50338 45.0608L10.5613 43.003C10.6034 42.9609 10.6264 42.9036 10.6264 42.8424C10.6264 42.7812 10.6034 42.7238 10.5613 42.6817L4.3148 36.4395L4.31098 36.4357C4.2689 36.3936 4.21152 36.3745 4.15415 36.3745C4.09677 36.3745 4.03939 36.3975 3.99731 36.4395Z" fill="#F2F2F2"/>
</g>
<defs>
<clipPath id="clip0_43_105">
<rect width="47" height="47" fill="white"/>
</clipPath>
</defs>
</svg>
