<svg width="50" height="50" viewBox="0 0 50 50" fill="none" xmlns="http://www.w3.org/2000/svg">
<g clip-path="url(#clip0_37_94)">
<path d="M10.0959 23.5107C10.0959 23.0835 10.4419 22.7376 10.8694 22.7376C11.2968 22.7376 11.6429 23.0835 11.6429 23.5107V38.5579C11.6429 38.5742 11.6429 38.5946 11.6429 38.6108C11.647 38.8387 11.651 39.0869 11.6592 39.3351C11.7039 41.4225 11.7487 43.514 11.423 45.634C11.3905 45.8455 11.3661 46.0653 11.3376 46.2931C11.1829 47.6481 10.9915 49.3001 9.70509 49.9186C9.59517 49.9715 9.48118 49.9959 9.3672 49.9959H7.69809C7.62888 49.9959 7.56374 49.9878 7.50268 49.9715C7.0223 49.8739 6.5867 49.6134 6.20403 49.1781C5.86614 48.7915 5.56895 48.2625 5.31248 47.5749C5.28806 47.5057 5.27177 47.4325 5.2677 47.3592C5.14964 45.756 5.07229 44.1244 5.03972 42.4601C5.00716 40.8285 5.02344 39.1886 5.09265 37.5529V20.6665C3.50089 20.1253 2.31216 19.1976 1.47353 17.8711C0.569769 16.4429 0.105675 14.5752 0.00797105 12.2559V12.2274C-0.0449519 10.4411 0.089391 8.84196 0.415071 7.43408C0.752964 5.98552 1.28626 4.73226 2.02312 3.67432C2.81696 2.53499 3.76957 1.66423 4.80361 1.06201C6.02084 0.354004 7.35205 0.0244141 8.67105 0.0732422C9.99413 0.12207 11.2968 0.549316 12.453 1.35498C13.4138 2.02637 14.2809 2.95817 14.973 4.15039C15.9337 5.79834 16.5322 8.30485 16.5851 10.8805C16.6258 12.7808 16.3693 14.7298 15.7465 16.4144C15.0951 18.1722 14.0488 19.6574 12.5141 20.5485C11.6062 21.0775 10.5396 21.3867 9.29392 21.4111C8.86646 21.4193 8.51636 21.0815 8.50821 20.6543C8.50007 20.2271 8.83797 19.8771 9.26542 19.869C10.2302 19.8486 11.0485 19.6126 11.7406 19.2098C12.9293 18.5181 13.7598 17.3177 14.2931 15.8813C14.8508 14.3758 15.0788 12.6221 15.0422 10.909C14.9933 8.58968 14.4682 6.35986 13.6336 4.9235C13.0596 3.9388 12.3512 3.17383 11.5655 2.62451C10.6536 1.98975 9.63588 1.65202 8.60999 1.6154C7.58003 1.57878 6.53785 1.83919 5.57303 2.39665C4.7344 2.88493 3.9487 3.60514 3.2892 4.55322C2.66633 5.44841 2.21038 6.52262 1.91727 7.77181C1.62823 9.06576 1.5061 10.5306 1.55495 12.1826V12.1948C1.64044 14.2415 2.03126 15.8569 2.78439 17.0492C3.49682 18.1763 4.56342 18.9372 6.03305 19.3359C6.38315 19.4092 6.6437 19.7225 6.6437 20.0928V37.557H6.63963C6.63963 37.5651 6.63963 37.5773 6.63963 37.5855C6.57042 39.2171 6.55414 40.8325 6.5867 42.4398C6.6152 43.9901 6.69255 45.5607 6.80654 47.1436C6.98159 47.5952 7.17293 47.9329 7.37241 48.1608C7.50675 48.3154 7.64109 48.409 7.77544 48.4497H9.15143C9.57075 48.0876 9.69695 47.0134 9.79872 46.1182C9.82722 45.8577 9.85572 45.6136 9.88828 45.4061C10.1977 43.3838 10.1529 41.3737 10.1122 39.3677C10.1081 39.1317 10.104 38.8997 10.0959 38.6434C10.0918 38.6149 10.0918 38.5905 10.0918 38.562V23.5107H10.0959ZM44.0562 29.7485C43.6287 29.7485 43.2827 29.4027 43.2827 28.9754C43.2827 28.5482 43.6287 28.2023 44.0562 28.2023H48.4488V15.0594C48.2086 11.3322 47.3374 8.47982 45.9655 6.32324C44.8337 4.54509 43.3437 3.23079 41.5769 2.28678V45.4386V45.4509C41.5769 45.7072 41.5769 45.9961 41.5851 46.1955C41.6217 47.0866 41.7805 48.1486 42.6069 48.1161C42.615 48.1161 42.6273 48.1161 42.6354 48.1161V48.112H44.3737C45.2449 47.9899 45.2245 46.936 45.2083 46.0164C45.2042 45.7845 45.2001 45.5811 45.2001 45.5689V32.4666C45.2001 32.0394 45.5462 31.6935 45.9736 31.6935C46.4011 31.6935 46.7471 32.0394 46.7471 32.4666V45.5689C46.7471 45.8618 46.7471 45.9269 46.7512 45.992C46.7797 47.5749 46.8122 49.3937 44.5406 49.646C44.4918 49.6541 44.4429 49.6623 44.39 49.6623H42.6395V49.6582C40.494 49.7274 40.1073 47.8394 40.0422 46.2524C40.03 45.8984 40.03 45.6584 40.03 45.4468V45.4346V1.05794C40.03 0.956218 40.0503 0.850423 40.0951 0.752767C40.262 0.358073 40.7179 0.179036 41.1128 0.345866C43.6328 1.42822 45.7294 3.08024 47.2723 5.49723C48.7826 7.86947 49.7393 10.9619 49.9998 14.9577C50.0039 14.9902 50.008 15.0228 50.008 15.0594V28.9754C50.008 29.4027 49.6619 29.7485 49.2345 29.7485H44.0562ZM25.9402 0.805664C25.9402 0.378418 26.2863 0.0325521 26.7137 0.0325521C27.1412 0.0325521 27.4872 0.378418 27.4872 0.805664V13.8916C27.4872 14.3188 27.1412 14.6647 26.7137 14.6647C26.2863 14.6647 25.9402 14.3188 25.9402 13.8916V0.805664ZM29.2092 0.805664C29.2092 0.378418 29.5553 0.0325521 29.9827 0.0325521C30.4102 0.0325521 30.7562 0.378418 30.7562 0.805664V13.8916C30.7562 14.3188 30.4102 14.6647 29.9827 14.6647C29.5553 14.6647 29.2092 14.3188 29.2092 13.8916V0.805664ZM32.6045 0.813802C32.6045 0.386556 32.9505 0.0406901 33.3779 0.0406901C33.8054 0.0406901 34.1514 0.386556 34.1514 0.813802V15.0513C34.1514 15.0838 34.1474 15.1164 34.1433 15.1489C34.0252 17.1427 33.5571 18.6646 32.7469 19.7225C31.8676 20.87 30.63 21.46 29.0383 21.5047C28.6108 21.5169 28.2566 21.1792 28.2444 20.756C28.2322 20.3288 28.5701 19.9748 28.9935 19.9626C30.0926 19.93 30.9353 19.5394 31.5134 18.7826C32.1363 17.9728 32.4986 16.7318 32.5963 15.0553V15.0472V0.813802H32.6045ZM22.6387 0.773112C22.6387 0.345866 22.9847 0 23.4121 0C23.8396 0 24.1856 0.345866 24.1856 0.773112V15.0106V15.0269C24.2508 16.2394 24.4502 17.2363 24.8126 17.9769C25.1342 18.632 25.5861 19.0796 26.1926 19.2749C26.5183 19.3807 26.7259 19.6859 26.7259 20.0114V46.8343C26.7259 46.8628 26.7259 46.8913 26.7219 46.9198C26.6811 47.4203 26.7504 47.7661 26.9091 47.9777C27.0475 48.1608 27.2959 48.2707 27.6419 48.3154H29.3517C29.5797 48.23 29.7588 48.0835 29.8972 47.8841C30.0764 47.6237 30.1985 47.2534 30.2636 46.7855V23.8851C30.2636 23.4578 30.6097 23.112 31.0371 23.112C31.4646 23.112 31.8106 23.4578 31.8106 23.8851V46.8343C31.8106 46.8669 31.8106 46.8954 31.8065 46.9279C31.7129 47.6644 31.5053 48.2788 31.1674 48.7671C30.8214 49.2717 30.3532 49.6216 29.7588 49.8088C29.6652 49.8454 29.5675 49.8698 29.4616 49.8698H27.6053C27.5768 49.8698 27.5483 49.8698 27.5198 49.8657C26.7178 49.7762 26.0949 49.471 25.6797 48.9217C25.2848 48.4009 25.1097 47.7051 25.1749 46.814V20.5282C24.4095 20.1416 23.8315 19.5109 23.4162 18.6564C22.9643 17.7287 22.716 16.5283 22.6387 15.1082C22.6346 15.0757 22.6305 15.0431 22.6305 15.0106V0.773112H22.6387Z" fill="#F2F2F2"/>
</g>
<defs>
<clipPath id="clip0_37_94">
<rect width="50" height="50" fill="white"/>
</clipPath>
</defs>
</svg>
