<svg width="186" height="110" viewBox="0 0 186 110" fill="none" xmlns="http://www.w3.org/2000/svg">
<path d="M77.8649 32.967H69.6149V41.2087C64.5379 41.6314 54.5109 45.0126 55.0186 55.1564C55.5263 65.3002 64.961 68.6814 69.6149 69.1041V77.9799H77.8649C78.288 83.0518 81.7996 92.9419 92.4612 91.9276C103.123 90.9132 106.211 82.2064 106.423 77.9799H114.038V69.1041C123.685 68.5969 127.365 60.4396 128 56.4244C126.985 44.759 118.269 42.2653 114.038 42.4767V32.967H104.519C104.096 28.1065 100.838 18.5122 91.192 19.0193C81.5457 19.5265 78.288 28.5291 77.8649 32.967Z" stroke="#F2F2F2" stroke-width="2"/>
<path d="M95.2712 47.8688C94.78 47.3422 95.0665 45.0164 95.2712 43.9193C95.5204 41.9445 97.7269 36.6787 100.797 35.3622C103.253 34.3091 105.504 35.8011 106.322 36.6787C107.796 38.2585 106.527 39.5311 105.708 39.9699H104.48L103.867 39.3118C103.867 37.732 102.229 37.7759 101.411 37.9953L100.183 38.6535L98.9548 39.3118L99.5688 39.3118C102.025 38.7852 102.229 40.4087 102.025 41.2864C101.82 41.5058 101.165 41.8129 100.183 41.2864C99.2004 40.7598 97.3176 44.5776 96.4989 46.5523C96.2943 47.2105 95.7624 48.3954 95.2712 47.8688Z" fill="#F2F2F2"/>
<path d="M91.7062 47.8688C92.2383 47.3422 91.9279 45.0164 91.7062 43.9193C91.4362 41.9445 89.0459 36.6787 85.7203 35.3622C83.0597 34.3091 80.6209 35.8011 79.7341 36.6787C78.1378 38.2585 79.5124 39.5311 80.3992 39.9699H81.7295L82.3946 39.3118C82.3946 37.732 84.1683 37.7759 85.0551 37.9953L86.3854 38.6535L87.7156 39.3118L87.0505 39.3118C84.39 38.7852 84.1683 40.4087 84.39 41.2864C84.6117 41.5058 85.3212 41.8129 86.3854 41.2864C87.4496 40.7598 89.4893 44.5776 90.3762 46.5523C90.5978 47.2105 91.1741 48.3954 91.7062 47.8688Z" fill="#F2F2F2"/>
<ellipse cx="93" cy="38" rx="2" ry="5" fill="#F2F2F2"/>
<path d="M96.0198 38C95.0479 37.455 96.0198 35.0479 96.6273 33.9125C98.4496 31.1876 100.272 31.1876 100.879 32.55C101.487 33.9125 99.6644 34.5938 98.4496 35.275C97.4776 35.82 96.4248 37.3188 96.0198 38Z" fill="#F2F2F2"/>
<path d="M95.4123 34.5936C94.4404 34.0486 95.4123 30.7332 96.0198 29.1437C96.4247 28.4624 97.4776 27.3724 98.4495 28.4624C99.4214 29.5524 98.4495 30.7332 97.8421 31.1874C97.3561 31.1874 96.0197 33.4582 95.4123 34.5936Z" fill="#F2F2F2"/>
<path d="M89.8102 37C90.9441 36.5095 89.8102 34.3431 89.1015 33.3213C86.9754 30.8688 84.8495 30.8688 84.1408 32.095C83.4321 33.3213 85.5581 33.9344 86.9755 34.5475C88.1094 35.038 89.3378 36.3869 89.8102 37Z" fill="#F2F2F2"/>
<path d="M90.519 33.9343C91.6529 33.4438 90.519 30.4599 89.8103 29.0293C89.3378 28.4162 88.1095 27.4352 86.9756 28.4162C85.8417 29.3972 86.9756 30.4599 87.6843 30.8687C88.2512 30.8687 89.8103 32.9124 90.519 33.9343Z" fill="#F2F2F2"/>
<path d="M94 24.1429C94 26.4286 93.7 31 92.5 31C91.3201 31 91.0103 26.5808 91.0003 24.2599C91.0002 23.8399 91.3 23 92.5 23C93.7 23 94 23.7619 94 24.1429Z" fill="#F2F2F2"/>
<path d="M98.1211 56.2938C98.6072 55.7617 100.754 56.0721 101.767 56.2938C103.59 56.5638 108.45 58.9541 109.666 62.2797C110.638 64.9403 109.261 67.3791 108.45 68.2659C106.992 69.8622 105.817 68.4876 105.412 67.6008L105.412 66.2705L106.02 65.6054C107.478 65.6054 107.438 63.8317 107.235 62.9449L106.627 61.6146L106.02 60.2844L106.02 60.9495C106.506 63.61 105.007 63.8317 104.197 63.61C103.995 63.3883 103.711 62.6788 104.197 61.6146C104.683 60.5504 101.159 58.5107 99.3363 57.6238C98.7287 57.4022 97.635 56.8259 98.1211 56.2938Z" fill="#F2F2F2"/>
<path d="M98.1312 53.7288C98.6578 54.22 100.984 53.9335 102.081 53.7288C104.055 53.4796 109.321 51.2731 110.638 48.2033C111.691 45.7475 110.199 43.4963 109.321 42.6776C107.741 41.2041 106.469 42.473 106.03 43.2916L106.03 44.5195L106.688 45.1335C108.268 45.1335 108.224 46.7707 108.005 47.5893L107.346 48.8173L106.688 50.0452L106.688 49.4312C107.215 46.9754 105.591 46.7707 104.714 46.9754C104.494 47.18 104.187 47.8349 104.714 48.8173C105.24 49.7996 101.422 51.6824 99.4477 52.5011C98.7895 52.7057 97.6046 53.2376 98.1312 53.7288Z" fill="#F2F2F2"/>
<ellipse cx="108" cy="55" rx="2" ry="5" transform="rotate(90 108 55)" fill="#F2F2F2"/>
<path d="M109 58.0198C109.49 57.0479 111.657 58.0198 112.679 58.6273C115.131 60.4496 115.131 62.2719 113.905 62.8793C112.679 63.4868 112.066 61.6644 111.452 60.4496C110.962 59.4776 109.613 58.4248 109 58.0198Z" fill="#F2F2F2"/>
<path d="M112.066 57.4123C112.556 56.4404 115.54 57.4123 116.971 58.0198C117.584 58.4247 118.565 59.4776 117.584 60.4495C116.603 61.4214 115.54 60.4495 115.131 59.8421C115.131 59.3561 113.088 58.0197 112.066 57.4123Z" fill="#F2F2F2"/>
<path d="M109 51.9802C109.545 52.9521 111.952 51.9802 113.087 51.3727C115.812 49.5504 115.812 47.7281 114.45 47.1207C113.087 46.5132 112.406 48.3356 111.725 49.5504C111.18 50.5224 109.681 51.5752 109 51.9802Z" fill="#F2F2F2"/>
<path d="M112.406 52.5877C112.951 53.5596 116.267 52.5877 117.856 51.9802C118.538 51.5753 119.628 50.5224 118.538 49.5505C117.448 48.5786 116.267 49.5505 115.813 50.1579C115.813 50.6439 113.542 51.9803 112.406 52.5877Z" fill="#F2F2F2"/>
<path d="M121.857 56C119.571 56 115 55.8 115 55C115 54.2134 119.419 54.0069 121.74 54.0002C122.16 54.0001 123 54.2 123 55C123 55.8 122.238 56 121.857 56Z" fill="#F2F2F2"/>
<path d="M91.7062 61.1211C92.2383 61.6072 91.9279 63.7541 91.7062 64.7668C91.4362 66.5897 89.0459 71.4504 85.7203 72.6656C83.0597 73.6378 80.6209 72.2606 79.7341 71.4504C78.1378 69.9922 79.5124 68.8174 80.3992 68.4124L81.7295 68.4124L82.3946 69.0199C82.3946 70.4781 84.1683 70.4376 85.0551 70.2351L86.3854 69.6275L87.7156 69.0199L87.0505 69.0199C84.39 69.506 84.1683 68.0073 84.39 67.1972C84.6117 66.9947 85.3212 66.7111 86.3854 67.1972C87.4496 67.6833 89.4893 64.1592 90.3762 62.3363C90.5978 61.7287 91.1741 60.635 91.7062 61.1211Z" fill="#F2F2F2"/>
<path d="M94.2712 61.1211C93.78 61.6072 94.0665 63.7541 94.2712 64.7668C94.5204 66.5897 96.7269 71.4504 99.7967 72.6656C102.253 73.6378 104.504 72.2606 105.322 71.4504C106.796 69.9922 105.527 68.8174 104.708 68.4124L103.48 68.4124L102.867 69.0199C102.867 70.4781 101.229 70.4376 100.411 70.2351L99.1827 69.6275L97.9548 69.0199L98.5688 69.0199C101.025 69.506 101.229 68.0073 101.025 67.1972C100.82 66.9947 100.165 66.7111 99.1827 67.1972C98.2004 67.6833 96.3176 64.1592 95.4989 62.3363C95.2943 61.7287 94.7624 60.635 94.2712 61.1211Z" fill="#F2F2F2"/>
<ellipse cx="93" cy="71" rx="2" ry="5" transform="rotate(-180 93 71)" fill="#F2F2F2"/>
<path d="M88.9802 72C89.9521 72.4905 88.9802 74.6569 88.3727 75.6787C86.5504 78.1312 84.7281 78.1312 84.1207 76.905C83.5132 75.6787 85.3356 75.0656 86.5504 74.4525C87.5224 73.962 88.5752 72.6131 88.9802 72Z" fill="#F2F2F2"/>
<path d="M89.5877 75.0657C90.5596 75.5562 89.5877 78.5401 88.9802 79.9707C88.5753 80.5838 87.5224 81.5648 86.5505 80.5838C85.5786 79.6028 86.5505 78.5401 87.1579 78.1313C87.6439 78.1313 88.9803 76.0876 89.5877 75.0657Z" fill="#F2F2F2"/>
<path d="M96.0198 72C95.0479 72.4905 96.0198 74.6569 96.6273 75.6787C98.4496 78.1312 100.272 78.1312 100.879 76.905C101.487 75.6787 99.6644 75.0656 98.4496 74.4525C97.4776 73.962 96.4248 72.6131 96.0198 72Z" fill="#F2F2F2"/>
<path d="M95.4123 75.0657C94.4404 75.5562 95.4123 78.5401 96.0198 79.9707C96.4247 80.5838 97.4776 81.5648 98.4495 80.5838C99.4214 79.6028 98.4495 78.5401 97.8421 78.1313C97.3561 78.1313 96.0197 76.0876 95.4123 75.0657Z" fill="#F2F2F2"/>
<path d="M92 84.7143C92 82.1429 92.2 77 93 77C93.7866 77 93.9931 81.9716 93.9998 84.5826C93.9999 85.0551 93.8 86 93 86C92.2 86 92 85.1429 92 84.7143Z" fill="#F2F2F2"/>
<path d="M84.8789 53.7288C84.3928 54.22 82.2459 53.9335 81.2332 53.7288C79.4103 53.4796 74.5496 51.2731 73.3344 48.2033C72.3622 45.7475 73.7394 43.4963 74.5496 42.6776C76.0078 41.2041 77.1826 42.473 77.5876 43.2916L77.5876 44.5195L76.9801 45.1335C75.5219 45.1335 75.5624 46.7707 75.7649 47.5893L76.3725 48.8173L76.9801 50.0452L76.9801 49.4312C76.494 46.9754 77.9927 46.7707 78.8028 46.9754C79.0053 47.18 79.2889 47.8349 78.8028 48.8173C78.3167 49.7996 81.8408 51.6824 83.6637 52.5011C84.2713 52.7057 85.365 53.2376 84.8789 53.7288Z" fill="#F2F2F2"/>
<path d="M84.8789 56.2938C84.3928 55.7617 82.2459 56.0721 81.2332 56.2938C79.4103 56.5638 74.5496 58.9541 73.3344 62.2797C72.3622 64.9403 73.7394 67.3791 74.5496 68.2659C76.0078 69.8622 77.1826 68.4876 77.5876 67.6008L77.5876 66.2705L76.9801 65.6054C75.5219 65.6054 75.5624 63.8317 75.7649 62.9449L76.3725 61.6146L76.9801 60.2844L76.9801 60.9495C76.494 63.61 77.9927 63.8317 78.8028 63.61C79.0053 63.3883 79.2889 62.6788 78.8028 61.6146C78.3167 60.5504 81.8408 58.5107 83.6637 57.6238C84.2713 57.4022 85.365 56.8259 84.8789 56.2938Z" fill="#F2F2F2"/>
<ellipse cx="76" cy="55" rx="2" ry="5" transform="rotate(-90 76 55)" fill="#F2F2F2"/>
<path d="M74 51.9802C73.5095 52.9521 71.3431 51.9802 70.3213 51.3727C67.8688 49.5504 67.8688 47.7281 69.095 47.1207C70.3213 46.5132 70.9344 48.3356 71.5475 49.5504C72.038 50.5224 73.3869 51.5752 74 51.9802Z" fill="#F2F2F2"/>
<path d="M70.9343 52.5877C70.4438 53.5596 67.4599 52.5877 66.0293 51.9802C65.4162 51.5753 64.4352 50.5224 65.4162 49.5505C66.3972 48.5786 67.4599 49.5505 67.8687 50.1579C67.8687 50.6439 69.9124 51.9803 70.9343 52.5877Z" fill="#F2F2F2"/>
<path d="M74 58.0198C73.5095 57.0479 71.3431 58.0198 70.3213 58.6273C67.8688 60.4496 67.8688 62.2719 69.095 62.8793C70.3213 63.4868 70.9344 61.6644 71.5475 60.4496C72.038 59.4776 73.3869 58.4248 74 58.0198Z" fill="#F2F2F2"/>
<path d="M70.9343 57.4123C70.4438 56.4404 67.4599 57.4123 66.0293 58.0198C65.4162 58.4247 64.4352 59.4776 65.4162 60.4495C66.3972 61.4214 67.4599 60.4495 67.8687 59.8421C67.8687 59.3561 69.9124 58.0197 70.9343 57.4123Z" fill="#F2F2F2"/>
<path d="M61.2857 54C63.8571 54 69 54.2 69 55C69 55.7866 64.0284 55.9931 61.4174 55.9998C60.9449 55.9999 60 55.8 60 55C60 54.2 60.8571 54 61.2857 54Z" fill="#F2F2F2"/>
<circle cx="91.7001" cy="54.4497" r="2.28103" stroke="#F2F2F2" stroke-width="0.5"/>
<path d="M85.3726 48.1224C85.3726 52.172 88.3254 54.0281 89.8019 54.4499L91.7001 51.9189C90.1815 48.3755 86.849 47.9114 85.3726 48.1224Z" fill="#F2F2F2" stroke="#F2F2F2" stroke-width="0.3"/>
<path d="M98.0277 48.1223C98.0277 52.1689 95.0748 54.0236 93.5984 54.4451L91.7001 51.916C93.2188 48.3752 96.5513 47.9116 98.0277 48.1223Z" fill="#F2F2F2" stroke="#F2F2F2" stroke-width="0.3"/>
<path d="M98.0277 60.7302C98.0277 56.6836 95.0748 54.8289 93.5984 54.4074L91.7001 56.9365C93.2188 60.4773 96.5513 60.941 98.0277 60.7302Z" fill="#F2F2F2" stroke="#F2F2F2" stroke-width="0.3"/>
<path d="M85.3726 60.7302C85.3726 56.6836 88.3254 54.8289 89.8019 54.4074L91.7001 56.9365C90.1815 60.4773 86.849 60.941 85.3726 60.7302Z" fill="#F2F2F2" stroke="#F2F2F2" stroke-width="0.3"/>
<path d="M87.9035 58.2849C88.5363 57.2303 89.9283 55.2477 90.4345 55.7539C91.0673 56.3866 89.169 58.2849 87.9035 58.2849Z" fill="#719CA5" stroke="#719CA5" stroke-width="0.3"/>
<path d="M95.6233 58.2796C94.9903 57.2271 93.5978 55.2485 93.0914 55.7537C92.4585 56.3852 94.3574 58.2796 95.6233 58.2796Z" fill="#719CA5" stroke="#719CA5" stroke-width="0.3"/>
<path d="M87.9035 50.6108C88.5365 51.6633 89.929 53.6419 90.4354 53.1367C91.0683 52.5052 89.1694 50.6108 87.9035 50.6108Z" fill="#719CA5" stroke="#719CA5" stroke-width="0.3"/>
<path d="M95.6233 50.6108C94.9903 51.6633 93.5978 53.6419 93.0914 53.1367C92.4585 52.5052 94.3574 50.6108 95.6233 50.6108Z" fill="#719CA5" stroke="#719CA5" stroke-width="0.3"/>
<path d="M15.8001 37.9457L13.4949 32.1138L15.6241 30.1156L15.8978 30.4072C15.7374 30.5578 15.6221 30.698 15.5519 30.8278C15.4821 30.9482 15.4592 31.0749 15.4833 31.2077C15.5074 31.3405 15.5781 31.489 15.6956 31.653C15.8133 31.8077 15.9748 31.9944 16.1801 32.2132L18.8353 35.0424C19.0634 35.2854 19.2533 35.4683 19.405 35.591C19.5568 35.7138 19.6983 35.7867 19.8297 35.8097C19.961 35.8327 20.0915 35.8062 20.2213 35.7301C20.3559 35.6495 20.5154 35.5272 20.6998 35.3633L20.9736 35.655L18.2319 38.228L17.9581 37.9364C18.1334 37.7627 18.2632 37.6135 18.3473 37.4889C18.4317 37.3548 18.4689 37.2239 18.4588 37.0962C18.4536 36.964 18.3991 36.8231 18.2953 36.6736C18.187 36.5193 18.0257 36.3278 17.8113 36.0994L14.6086 32.6868L14.5722 32.721L17.1409 39.389L16.6013 39.8954L10.044 36.9707L10.0148 36.9981L13.1695 40.3596C13.3976 40.6026 13.5876 40.7855 13.7393 40.9082C13.8911 41.031 14.0326 41.1039 14.1639 41.1269C14.2953 41.1499 14.4258 41.1234 14.5556 41.0473C14.6902 40.9667 14.8497 40.8444 15.0341 40.6805L15.3079 40.9722L13.062 43.0799L12.7883 42.7882C12.9636 42.6146 13.0957 42.4631 13.1847 42.3339C13.2691 42.1998 13.3063 42.0689 13.2962 41.9412C13.291 41.809 13.2365 41.6681 13.1328 41.5186C13.0245 41.3643 12.8631 41.1729 12.6487 40.9444L9.8977 38.0131C9.70609 37.8089 9.53669 37.6479 9.38951 37.53C9.24232 37.4122 9.1055 37.3394 8.97903 37.3118C8.848 37.2794 8.71775 37.2965 8.5883 37.3631C8.45914 37.4203 8.31192 37.5265 8.14664 37.6816L7.87291 37.3899L10.0823 35.3164L15.7709 37.9731L15.8001 37.9457Z" fill="#F2F2F2"/>
<path d="M34.0825 21.4315C34.4515 21.2174 34.7418 21.0336 34.9533 20.88C35.1648 20.7265 35.311 20.58 35.392 20.4405C35.4753 20.2919 35.5028 20.1334 35.4744 19.9649C35.446 19.7964 35.3776 19.5856 35.2693 19.3324L35.5893 19.1467L37.0598 21.6811L36.7397 21.8667C36.5713 21.6562 36.4181 21.4984 36.2801 21.3935C36.1422 21.2885 35.9897 21.2383 35.8227 21.2427C35.6523 21.2413 35.4526 21.2956 35.2234 21.4054C34.9967 21.5061 34.7017 21.6619 34.3384 21.8726L35.3722 23.6545C35.4793 23.839 35.5927 23.9813 35.7124 24.0814C35.8379 24.1781 35.9817 24.2334 36.1439 24.2472C36.3027 24.2553 36.4873 24.2214 36.6977 24.1456C36.9047 24.064 37.1466 23.9429 37.4234 23.7823C37.7521 23.5916 38.0155 23.408 38.2136 23.2314C38.4175 23.0514 38.5609 22.8603 38.644 22.658C38.727 22.4556 38.7594 22.2326 38.7413 21.9888C38.7198 21.7392 38.6554 21.4489 38.5482 21.118L38.8942 20.9173L39.905 22.9783L34.0406 26.3809L33.8399 26.0349C34.0269 25.9187 34.1725 25.8111 34.2769 25.712C34.3812 25.6129 34.4451 25.5104 34.4683 25.4044C34.4916 25.2984 34.478 25.1753 34.4275 25.035C34.3769 24.8948 34.2931 24.7237 34.176 24.5219L31.8575 20.5258C31.7404 20.324 31.6351 20.1692 31.5418 20.0615C31.4509 19.9447 31.3566 19.8684 31.2588 19.8327C31.1576 19.7912 31.0455 19.7907 30.9226 19.8312C30.8021 19.8626 30.652 19.9227 30.4723 20.0115L30.2716 19.6655L35.7381 16.4938L36.7822 18.154L36.4103 18.3698C36.2352 18.1477 36.065 17.9806 35.8997 17.8684C35.7311 17.7504 35.5537 17.6837 35.3675 17.6684C35.178 17.6474 34.9665 17.6814 34.7331 17.7706C34.5021 17.8507 34.2338 17.9794 33.9282 18.1567L32.9508 18.7238C32.8008 18.8108 32.7203 18.8845 32.7091 18.9449C32.6946 18.9996 32.7275 19.0961 32.8078 19.2345L34.0825 21.4315Z" fill="#F2F2F2"/>
<path d="M55.2024 16.228L55.0822 15.8465C55.2901 15.7741 55.4536 15.7051 55.5727 15.6396C55.6963 15.5657 55.781 15.4797 55.8269 15.3813C55.8772 15.2746 55.894 15.1505 55.8773 15.009C55.8587 14.8611 55.8134 14.6726 55.7412 14.4437L54.3532 10.0372C54.2831 9.81461 54.2175 9.63957 54.1564 9.51204C54.0932 9.37816 54.0179 9.28308 53.9302 9.22681C53.8406 9.16417 53.7346 9.13817 53.6121 9.14878C53.494 9.15104 53.3439 9.17385 53.1619 9.21721L53.0417 8.83569L56.6661 7.69404C57.2766 7.50177 57.8694 7.41989 58.4445 7.44842C59.0196 7.47694 59.5479 7.60063 60.0292 7.81947C60.5105 8.03831 60.9292 8.34677 61.2852 8.74486C61.6413 9.14295 61.9054 9.61542 62.0777 10.1623C62.2419 10.6837 62.2946 11.1948 62.2357 11.6956C62.1747 12.1901 62.0153 12.6492 61.7574 13.073C61.5058 13.4947 61.16 13.8727 60.7201 14.207C60.2846 14.5329 59.7711 14.789 59.1798 14.9752L55.2024 16.228ZM55.6381 8.65741C55.53 8.69146 55.493 8.76254 55.527 8.87063L57.0802 13.8018C57.1964 14.1706 57.397 14.408 57.682 14.5139C57.967 14.6198 58.3479 14.5977 58.8248 14.4475C59.6578 14.1851 60.2178 13.7327 60.5046 13.0901C60.7979 12.4456 60.7933 11.6432 60.4908 10.6831C60.3306 10.1744 60.127 9.73875 59.88 9.37621C59.633 9.01366 59.352 8.73173 59.0369 8.53041C58.7199 8.32274 58.373 8.19785 57.9963 8.15575C57.6259 8.11165 57.2373 8.15369 56.8303 8.28187L55.6381 8.65741Z" fill="#F2F2F2"/>
<path d="M83.297 10.3122L79.7433 10.6529L79.7051 10.2547C79.9301 10.2265 80.1074 10.1894 80.237 10.1435C80.3725 10.0903 80.472 10.0104 80.5355 9.90388C80.5989 9.79734 80.6353 9.6532 80.6447 9.47148C80.6534 9.28312 80.6428 9.03299 80.6129 8.72108L80.2292 4.71944C80.2025 4.44071 80.1673 4.21304 80.1236 4.0364C80.0858 3.8525 80.0287 3.71064 79.9522 3.61082C79.8756 3.511 79.7724 3.44723 79.6425 3.4195C79.5186 3.3845 79.3531 3.37023 79.1461 3.37668L79.108 2.97851L82.4626 2.65686L82.5008 3.05504C82.2963 3.08804 82.1333 3.13381 82.0116 3.19235C81.896 3.24362 81.8101 3.32553 81.7539 3.43807C81.6977 3.55061 81.6653 3.70106 81.6565 3.88942C81.6538 4.07051 81.6658 4.30041 81.6925 4.57914L82.0762 8.58078C82.1061 8.89269 82.1399 9.14059 82.1777 9.3245C82.2214 9.50113 82.2845 9.63572 82.3671 9.72826C82.4562 9.82017 82.5691 9.87967 82.7056 9.90676C82.8482 9.92658 83.0326 9.92899 83.2589 9.914L83.297 10.3122Z" fill="#F2F2F2"/>
<path d="M109.111 5.67296L108.684 5.62562C108.7 5.29874 108.68 5.02488 108.624 4.80404C108.575 4.5773 108.488 4.39328 108.363 4.25197C108.239 4.10404 108.08 3.99587 107.886 3.92748C107.693 3.85245 107.464 3.80027 107.199 3.77091C106.941 3.7423 106.731 3.72581 106.571 3.72145C106.417 3.7112 106.296 3.71455 106.207 3.73152C106.126 3.74259 106.069 3.76654 106.038 3.80336C106.007 3.84018 105.989 3.88841 105.982 3.94805L105.405 9.15621C105.382 9.36824 105.375 9.55193 105.384 9.70727C105.401 9.86334 105.45 9.99621 105.532 10.1059C105.614 10.2089 105.742 10.2968 105.915 10.3697C106.089 10.4359 106.321 10.4884 106.612 10.5273L106.568 10.9249L102.403 10.4637L102.447 10.0661C102.746 10.0925 102.988 10.0924 103.172 10.0659C103.356 10.0327 103.5 9.97483 103.603 9.89234C103.714 9.80395 103.791 9.68502 103.834 9.53556C103.884 9.38683 103.921 9.20644 103.944 8.9944L104.521 3.78624C104.528 3.72661 104.52 3.67544 104.498 3.63275C104.482 3.59079 104.439 3.55584 104.368 3.52789C104.299 3.49331 104.194 3.46501 104.056 3.44297C103.925 3.41504 103.75 3.38897 103.531 3.36475C103.293 3.33834 103.063 3.32627 102.841 3.32856C102.62 3.32422 102.421 3.36921 102.243 3.46351C102.065 3.55118 101.911 3.70179 101.78 3.91534C101.657 4.12299 101.569 4.42855 101.518 4.83202L101.13 4.78909L101.472 2.61346L109.254 3.47532L109.111 5.67296Z" fill="#F2F2F2"/>
<path d="M132.733 11.5521C132.553 12.0755 132.251 12.4617 131.827 12.7108C131.403 12.9599 130.84 13.0307 130.136 12.9231L131.466 16.1925C131.557 16.421 131.69 16.6183 131.866 16.7843C132.044 16.9441 132.24 17.0608 132.454 17.1344L132.324 17.5127L130.083 16.7428L128.725 13.062C128.632 12.8187 128.537 12.6449 128.439 12.5407C128.349 12.4324 128.254 12.3609 128.153 12.3262L127.516 14.1799C127.436 14.4132 127.386 14.6109 127.365 14.7731C127.347 14.9289 127.371 15.0641 127.437 15.1785C127.504 15.293 127.62 15.3963 127.785 15.4884C127.96 15.5765 128.198 15.6725 128.501 15.7764L128.371 16.1547L124.616 14.865L124.746 14.4867C124.954 14.5581 125.126 14.6029 125.26 14.621C125.404 14.635 125.523 14.616 125.618 14.5642C125.722 14.5082 125.81 14.4152 125.883 14.2852C125.958 14.1488 126.034 13.9703 126.109 13.7496L127.61 9.38023C127.686 9.15956 127.737 8.97977 127.764 8.84086C127.793 8.69565 127.789 8.57439 127.751 8.47707C127.717 8.37345 127.644 8.28845 127.532 8.22208C127.43 8.15157 127.283 8.07644 127.092 7.99669L127.222 7.61838L130.494 8.74246C131.408 9.05651 132.059 9.45986 132.447 9.95252C132.834 10.4452 132.93 10.9784 132.733 11.5521ZM128.348 11.7588L128.962 11.9699C129.555 12.1735 130.035 12.2117 130.403 12.0843C130.78 11.9528 131.059 11.6223 131.241 11.0926C131.38 10.6891 131.368 10.3222 131.207 9.9918C131.045 9.66143 130.747 9.42153 130.312 9.27208L129.489 8.98944C129.376 8.95045 129.301 8.98455 129.264 9.09174L128.348 11.7588Z" fill="#F2F2F2"/>
<path d="M151.271 22.2505C151.635 22.4727 151.935 22.6402 152.171 22.7528C152.407 22.8654 152.605 22.9241 152.766 22.9287C152.937 22.9311 153.089 22.8796 153.224 22.7743C153.358 22.6689 153.511 22.5083 153.682 22.2923L153.998 22.485L152.472 24.9863L152.156 24.7936C152.261 24.5451 152.326 24.3352 152.353 24.1639C152.379 23.9926 152.35 23.8346 152.267 23.6899C152.187 23.5395 152.044 23.3899 151.838 23.2408C151.641 23.0896 151.364 22.9046 151.005 22.6859L149.932 24.4445C149.821 24.6266 149.75 24.7941 149.719 24.9471C149.694 25.1036 149.714 25.2564 149.779 25.4055C149.848 25.5489 149.966 25.695 150.133 25.8437C150.303 25.9867 150.525 26.1416 150.798 26.3082C151.123 26.5061 151.41 26.65 151.66 26.7399C151.915 26.8333 152.151 26.8682 152.369 26.8446C152.586 26.8211 152.798 26.7432 153.003 26.6109C153.213 26.473 153.437 26.278 153.677 26.0259L154.018 26.2342L152.689 28.1058L146.901 24.5747L147.109 24.2333C147.301 24.3422 147.465 24.4188 147.601 24.4633C147.738 24.5078 147.859 24.5149 147.963 24.4848C148.067 24.4547 148.169 24.384 148.268 24.2727C148.367 24.1614 148.478 24.0061 148.599 23.8069L151.005 19.863C151.127 19.6638 151.213 19.4975 151.263 19.3641C151.322 19.2284 151.344 19.1091 151.329 19.0061C151.317 18.8974 151.264 18.7987 151.17 18.71C151.085 18.619 150.96 18.5158 150.797 18.4002L151.005 18.0587L156.4 21.3502L155.439 23.0599L155.072 22.8359C155.184 22.5761 155.25 22.3467 155.269 22.148C155.293 21.9435 155.266 21.7558 155.191 21.5848C155.119 21.4082 154.988 21.2386 154.799 21.076C154.618 20.9112 154.377 20.7368 154.075 20.5527L153.111 19.9642C152.963 19.874 152.86 19.8383 152.801 19.8573C152.746 19.8706 152.677 19.9456 152.594 20.0822L151.271 22.2505Z" fill="#F2F2F2"/>
<path d="M168.851 38.9305C168.675 39.1133 168.542 39.2669 168.45 39.3914C168.363 39.5205 168.314 39.6394 168.302 39.7481C168.29 39.8568 168.316 39.9647 168.379 40.0719C168.448 40.1836 168.554 40.3134 168.699 40.4613L168.422 40.7499L165.918 38.3476L166.195 38.0589C166.358 38.2064 166.502 38.3166 166.626 38.3895C166.75 38.4624 166.866 38.4953 166.974 38.4884C167.083 38.4814 167.197 38.4343 167.318 38.3469C167.439 38.2595 167.58 38.1316 167.742 37.9633L170.94 34.6295C171.097 34.466 171.217 34.3221 171.299 34.1978C171.386 34.0781 171.433 33.9663 171.44 33.8624C171.448 33.7585 171.417 33.6507 171.349 33.539C171.285 33.4319 171.186 33.3042 171.051 33.1562L171.328 32.8675L173.817 35.256L173.541 35.5447C173.372 35.3926 173.226 35.2801 173.102 35.2072C172.983 35.1389 172.867 35.1107 172.754 35.1225C172.641 35.1342 172.522 35.1862 172.396 35.2784C172.276 35.3752 172.128 35.515 171.952 35.6978L170.415 37.2997L174.209 37.0868C174.435 37.0727 174.587 37.0248 174.666 36.943C174.716 36.8901 174.72 36.8146 174.675 36.7165C174.635 36.623 174.522 36.4862 174.334 36.3062L174.611 36.0176L176.581 37.9076L176.311 38.1891C176.201 38.0923 176.098 38.012 176.002 37.9479C175.911 37.8885 175.802 37.8436 175.674 37.8133C175.551 37.7875 175.395 37.7719 175.206 37.7664C175.027 37.7606 174.793 37.7631 174.506 37.7738L171.934 37.8836L171.577 42.5023C171.558 42.7243 171.581 42.9219 171.646 43.095C171.715 43.2727 171.842 43.4587 172.025 43.6529L171.748 43.9416L169.078 41.38L169.355 41.0913C169.557 41.2758 169.715 41.3951 169.829 41.4493C169.944 41.5035 170.033 41.4969 170.098 41.4296C170.121 41.4055 170.137 41.3793 170.146 41.3508C170.164 41.3221 170.177 41.2841 170.186 41.2368C170.204 41.1893 170.216 41.1277 170.224 41.0521C170.237 40.9717 170.246 40.8701 170.253 40.7474L170.485 37.9489L169.765 37.978L168.851 38.9305Z" fill="#F2F2F2"/>
<path d="M11.7422 75.9041L17.4162 73.2338L19.5454 75.232L19.2717 75.5237C19.1112 75.3732 18.964 75.267 18.83 75.2052C18.7054 75.1432 18.5776 75.1283 18.4466 75.1608C18.3155 75.1933 18.1719 75.2733 18.0156 75.4009C17.8687 75.5282 17.6926 75.7012 17.4873 75.9199L14.8321 78.7491C14.604 78.9922 14.4335 79.1933 14.3207 79.3526C14.2078 79.5118 14.144 79.6577 14.1294 79.7902C14.1147 79.9227 14.1495 80.0513 14.2336 80.176C14.3226 80.3052 14.4547 80.4567 14.63 80.6303L14.3563 80.922L11.6146 78.3489L11.8883 78.0573C12.0728 78.2212 12.2298 78.3412 12.3596 78.4173C12.4988 78.493 12.6318 78.5218 12.7585 78.5037C12.8901 78.49 13.0273 78.4267 13.1699 78.3137C13.3171 78.1959 13.4979 78.0227 13.7123 77.7942L16.9149 74.3817L16.8785 74.3475L10.3868 77.3338L9.84718 76.8274L12.3503 70.0978L12.3211 70.0704L9.16639 73.4319C8.93828 73.675 8.7678 73.8761 8.65494 74.0354C8.54208 74.1946 8.47832 74.3405 8.46366 74.473C8.449 74.6055 8.48374 74.7341 8.56788 74.8588C8.65687 74.988 8.78902 75.1395 8.96432 75.3131L8.69059 75.6048L6.44473 73.4971L6.71845 73.2054C6.90288 73.3693 7.0624 73.4916 7.19702 73.5722C7.3362 73.648 7.46917 73.6768 7.59594 73.6586C7.72757 73.645 7.86469 73.5817 8.00732 73.4687C8.1545 73.3509 8.33531 73.1777 8.54973 72.9492L11.3007 70.0179C11.4923 69.8137 11.6423 69.6345 11.7506 69.4801C11.8589 69.3258 11.9228 69.1846 11.9423 69.0566C11.9664 68.9238 11.9411 68.7949 11.8664 68.6699C11.8011 68.5447 11.6858 68.4045 11.5205 68.2494L11.7942 67.9577L14.0036 70.0312L11.713 75.8768L11.7422 75.9041Z" fill="#F2F2F2"/>
<path d="M33.5028 89.1259C33.8719 89.34 34.1755 89.5007 34.4138 89.6082C34.6521 89.7156 34.8518 89.7698 35.0131 89.7709C35.1834 89.7695 35.3347 89.7147 35.4669 89.6064C35.5991 89.4981 35.7482 89.3341 35.9142 89.1145L36.2342 89.3001L34.7638 91.8345L34.4438 91.6488C34.543 91.398 34.6039 91.1868 34.6265 91.0149C34.6492 90.8431 34.6171 90.6857 34.5304 90.5429C34.4471 90.3944 34.3008 90.2479 34.0917 90.1034C33.8918 89.9566 33.6101 89.7778 33.2469 89.567L32.2131 91.3488C32.106 91.5333 32.0387 91.7024 32.0113 91.856C31.9895 92.013 32.0129 92.1653 32.0814 92.3129C32.1533 92.4548 32.2743 92.5982 32.4445 92.7433C32.6181 92.8825 32.8432 93.0324 33.12 93.193C33.4487 93.3837 33.7389 93.5212 33.9905 93.6056C34.2479 93.6933 34.4851 93.723 34.7019 93.6946C34.9188 93.6663 35.1285 93.5837 35.3312 93.447C35.5372 93.3044 35.7572 93.1045 35.9913 92.8472L36.3373 93.048L35.0496 94.9484L29.1852 91.5459L29.386 91.1999C29.5796 91.3046 29.7453 91.3776 29.8832 91.419C30.021 91.4604 30.1417 91.465 30.2453 91.4326C30.3488 91.4002 30.449 91.3272 30.5456 91.2138C30.6423 91.1003 30.7492 90.9426 30.8663 90.7408L33.1848 86.7447C33.3019 86.5429 33.3841 86.3747 33.4313 86.2403C33.4876 86.1034 33.507 85.9836 33.4895 85.8809C33.4753 85.7725 33.4201 85.675 33.3239 85.5884C33.2369 85.4993 33.1102 85.3988 32.9439 85.2869L33.1446 84.941L38.6111 88.1126L37.6881 89.8431L37.3161 89.6273C37.4221 89.365 37.4827 89.1343 37.4981 88.9351C37.5168 88.7302 37.4866 88.5431 37.4075 88.3739C37.3318 88.1989 37.1972 88.0322 37.004 87.8738C36.8198 87.713 36.5749 87.5439 36.2693 87.3666L35.2919 86.7995C35.1419 86.7125 35.038 86.6792 34.98 86.6995C34.9253 86.714 34.8578 86.7905 34.7775 86.9289L33.5028 89.1259Z" fill="#F2F2F2"/>
<path d="M52.2278 102.558L52.348 102.177C52.5598 102.237 52.7333 102.274 52.8685 102.288C53.0121 102.299 53.1308 102.277 53.2248 102.222C53.3272 102.164 53.4121 102.072 53.4796 101.946C53.5491 101.814 53.6199 101.634 53.692 101.405L55.08 96.9985C55.1501 96.7759 55.1966 96.5949 55.2196 96.4553C55.2446 96.3095 55.2373 96.1883 55.1978 96.092C55.1602 95.9893 55.0882 95.9072 54.9818 95.8457C54.8837 95.7799 54.7476 95.7126 54.5736 95.6438L54.6938 95.2623L58.3182 96.4039C58.9286 96.5962 59.4613 96.8688 59.9163 97.2218C60.3713 97.5748 60.7333 97.9789 61.0023 98.4341C61.2713 98.8892 61.4376 99.382 61.5012 99.9123C61.5649 100.443 61.5105 100.981 61.3383 101.528C61.1741 102.049 60.9243 102.498 60.589 102.875C60.2556 103.245 59.8619 103.53 59.4076 103.73C58.9598 103.931 58.4598 104.043 57.9078 104.064C57.3641 104.082 56.7965 103.998 56.2052 103.811L52.2278 102.558ZM56.9236 96.6042C56.8155 96.5701 56.7444 96.6071 56.7104 96.7152L55.1572 101.646C55.041 102.015 55.0693 102.325 55.2421 102.575C55.415 102.825 55.7398 103.025 56.2167 103.175C57.0497 103.438 57.7679 103.388 58.3712 103.026C58.9809 102.666 59.437 102.005 59.7394 101.045C59.8997 100.537 59.9825 100.063 59.9878 99.6243C59.9932 99.1856 59.9245 98.7935 59.7817 98.448C59.6409 98.0961 59.4282 97.795 59.1436 97.5446C58.8654 97.2962 58.5228 97.1079 58.1159 96.9797L56.9236 96.6042Z" fill="#F2F2F2"/>
<path d="M82.3362 108.905L78.7825 108.565L78.8206 108.166C79.0469 108.181 79.228 108.179 79.3639 108.158C79.5071 108.132 79.6199 108.072 79.7025 107.98C79.785 107.887 79.8482 107.753 79.8919 107.576C79.9363 107.393 79.9734 107.145 80.0033 106.833L80.387 102.832C80.4137 102.553 80.4224 102.323 80.413 102.141C80.4109 101.953 80.3818 101.803 80.3256 101.691C80.2694 101.578 80.1802 101.496 80.0579 101.444C79.9429 101.386 79.7832 101.341 79.5787 101.308L79.6169 100.909L82.9715 101.231L82.9334 101.629C82.7264 101.623 82.5576 101.637 82.4271 101.671C82.3038 101.699 82.2039 101.763 82.1273 101.863C82.0508 101.963 81.9903 102.105 81.946 102.288C81.9089 102.465 81.877 102.693 81.8503 102.972L81.4666 106.974C81.4367 107.285 81.4228 107.535 81.4249 107.723C81.4342 107.905 81.4706 108.049 81.5341 108.155C81.6042 108.263 81.7037 108.342 81.8326 108.395C81.9688 108.442 82.1494 108.479 82.3743 108.507L82.3362 108.905Z" fill="#F2F2F2"/>
<path d="M108.841 102.617L108.414 102.665C108.358 102.342 108.278 102.079 108.175 101.876C108.078 101.666 107.953 101.505 107.8 101.394C107.646 101.277 107.467 101.207 107.263 101.182C107.059 101.151 106.824 101.15 106.559 101.18C106.3 101.208 106.092 101.238 105.935 101.269C105.783 101.293 105.666 101.322 105.583 101.358C105.505 101.387 105.456 101.423 105.433 101.465C105.411 101.508 105.404 101.559 105.41 101.619L105.987 106.827C106.01 107.039 106.044 107.22 106.087 107.369C106.137 107.518 106.214 107.637 106.318 107.726C106.421 107.809 106.565 107.866 106.75 107.9C106.934 107.926 107.172 107.927 107.464 107.901L107.508 108.299L103.344 108.76L103.3 108.362C103.597 108.323 103.833 108.27 104.006 108.203C104.179 108.131 104.307 108.043 104.39 107.94C104.478 107.829 104.527 107.696 104.537 107.541C104.553 107.385 104.549 107.201 104.526 106.989L103.949 101.781C103.942 101.721 103.924 101.673 103.893 101.636C103.869 101.598 103.819 101.574 103.744 101.562C103.668 101.544 103.56 101.539 103.42 101.547C103.286 101.549 103.11 101.562 102.891 101.586C102.653 101.612 102.426 101.651 102.21 101.702C101.993 101.746 101.809 101.833 101.655 101.964C101.501 102.089 101.384 102.269 101.303 102.506C101.228 102.736 101.209 103.053 101.247 103.458L100.86 103.501L100.717 101.304L108.499 100.442L108.841 102.617Z" fill="#F2F2F2"/>
<path d="M131.974 96.3257C132.154 96.849 132.153 97.3392 131.972 97.7962C131.791 98.2532 131.389 98.6554 130.769 99.0026L133.827 100.765C134.039 100.889 134.265 100.963 134.506 100.986C134.744 101.003 134.97 100.974 135.185 100.901L135.315 101.279L133.073 102.049L129.74 99.9797C129.518 99.8447 129.336 99.7662 129.194 99.7443C129.057 99.7139 128.938 99.7161 128.837 99.7507L129.474 101.604C129.554 101.838 129.636 102.025 129.719 102.165C129.8 102.299 129.902 102.391 130.025 102.441C130.148 102.49 130.303 102.5 130.49 102.471C130.682 102.434 130.929 102.363 131.232 102.259L131.362 102.637L127.607 103.927L127.477 103.549C127.685 103.477 127.848 103.407 127.965 103.339C128.087 103.262 128.169 103.173 128.213 103.074C128.26 102.966 128.273 102.838 128.25 102.691C128.226 102.537 128.175 102.35 128.1 102.129L126.599 97.7599C126.523 97.5392 126.453 97.3659 126.388 97.24C126.322 97.1078 126.244 97.0147 126.155 96.9607C126.064 96.9004 125.954 96.8782 125.825 96.8941C125.701 96.9016 125.539 96.9326 125.339 96.9871L125.209 96.6088L128.482 95.4847C129.396 95.1707 130.157 95.0889 130.766 95.2393C131.374 95.3898 131.777 95.7519 131.974 96.3257ZM128.642 99.1833L129.257 98.9721C129.849 98.7685 130.252 98.5034 130.464 98.1768C130.68 97.8417 130.697 97.4094 130.515 96.8798C130.377 96.4762 130.142 96.1938 129.812 96.0323C129.481 95.8709 129.099 95.8649 128.664 96.0143L127.841 96.297C127.727 96.336 127.689 96.4091 127.726 96.5162L128.642 99.1833Z" fill="#F2F2F2"/>
<path d="M151.712 88.4086C152.077 88.1863 152.363 87.9962 152.571 87.838C152.779 87.6798 152.922 87.5301 153 87.3889C153.08 87.2385 153.104 87.0794 153.072 86.9116C153.039 86.7438 152.966 86.5345 152.853 86.2838L153.168 86.0911L154.694 88.5924L154.379 88.7851C154.205 88.5783 154.049 88.4239 153.909 88.322C153.768 88.2202 153.615 88.1733 153.448 88.1814C153.278 88.1838 153.079 88.2424 152.852 88.3573C152.628 88.463 152.336 88.6252 151.978 88.8439L153.051 90.6025C153.162 90.7846 153.278 90.9244 153.4 91.0218C153.528 91.1158 153.673 91.1679 153.835 91.1781C153.994 91.1827 154.178 91.1447 154.387 91.0643C154.592 90.9782 154.831 90.8518 155.104 90.6851C155.429 90.4872 155.688 90.2978 155.882 90.1169C156.082 89.9324 156.221 89.7382 156.3 89.5341C156.378 89.33 156.406 89.1063 156.382 88.8629C156.355 88.6139 156.285 88.3251 156.17 87.9967L156.512 87.7883L157.568 89.8266L151.78 93.3576L151.571 93.0162C151.756 92.8959 151.899 92.7851 152.001 92.6837C152.103 92.5824 152.165 92.4784 152.186 92.3719C152.207 92.2655 152.19 92.1427 152.137 92.0036C152.083 91.8645 151.996 91.6953 151.874 91.4961L149.468 87.5522C149.346 87.353 149.238 87.2006 149.142 87.0949C149.049 86.9801 148.953 86.906 148.854 86.8724C148.752 86.8331 148.64 86.8351 148.518 86.8783C148.398 86.9123 148.249 86.9757 148.072 87.0685L147.863 86.7271L153.259 83.4356L154.339 85.0723L153.972 85.2963C153.792 85.0781 153.618 84.9147 153.451 84.8062C153.279 84.692 153.1 84.6293 152.914 84.618C152.724 84.6012 152.513 84.6399 152.282 84.7342C152.053 84.8193 151.787 84.9539 151.486 85.1379L150.521 85.7265C150.373 85.8167 150.294 85.8922 150.284 85.9529C150.271 86.0079 150.306 86.1036 150.389 86.2402L151.712 88.4086Z" fill="#F2F2F2"/>
<path d="M173.137 75.4497C173.313 75.6325 173.461 75.7723 173.581 75.8691C173.706 75.9613 173.823 76.0156 173.931 76.0319C174.039 76.0483 174.148 76.027 174.258 75.968C174.372 75.9043 174.507 75.8034 174.66 75.6651L174.937 75.9537L172.433 78.3561L172.156 78.0675C172.311 77.9104 172.427 77.7713 172.505 77.6503C172.583 77.5294 172.62 77.4146 172.618 77.3061C172.615 77.1976 172.573 77.0812 172.491 76.9569C172.408 76.8326 172.286 76.6863 172.125 76.5179L168.926 73.1842C168.769 73.0206 168.631 72.8952 168.51 72.8078C168.394 72.7158 168.284 72.664 168.181 72.6525C168.077 72.6409 167.968 72.6669 167.854 72.7306C167.744 72.7896 167.612 72.8835 167.459 73.0124L167.182 72.7237L169.671 70.3352L169.948 70.6239C169.789 70.7856 169.671 70.927 169.593 71.0479C169.52 71.1643 169.487 71.2791 169.494 71.3924C169.501 71.5057 169.548 71.627 169.635 71.7561C169.727 71.8805 169.86 72.0342 170.036 72.217L171.572 73.8189L171.517 70.0198C171.512 69.7934 171.47 69.6393 171.392 69.5575C171.341 69.5046 171.266 69.4983 171.166 69.5387C171.071 69.5744 170.93 69.6823 170.742 69.8623L170.465 69.5737L172.435 67.6836L172.705 67.965C172.604 68.0714 172.519 68.171 172.451 68.2639C172.388 68.3522 172.339 68.4596 172.303 68.5862C172.272 68.7081 172.25 68.8633 172.237 69.0516C172.224 69.2305 172.217 69.4638 172.215 69.7513L172.219 72.3258L176.819 72.8737C177.04 72.9018 177.238 72.8871 177.414 72.8294C177.594 72.7671 177.785 72.6485 177.987 72.4735L178.264 72.7621L175.594 75.3237L175.317 75.0351C175.51 74.8411 175.635 74.6881 175.694 74.5761C175.753 74.4642 175.75 74.3745 175.686 74.3072C175.663 74.2831 175.637 74.2661 175.609 74.2561C175.581 74.2366 175.544 74.2217 175.497 74.2113C175.45 74.1915 175.389 74.1761 175.314 74.1651C175.234 74.1493 175.133 74.1354 175.011 74.1235L172.224 73.7758L172.223 74.4972L173.137 75.4497Z" fill="#F2F2F2"/>
<circle cx="3" cy="56" r="3" fill="#F2F2F2"/>
<circle cx="183" cy="56" r="3" fill="#F2F2F2"/>
</svg>
