<svg width="194" height="53" viewBox="0 0 194 53" fill="none" xmlns="http://www.w3.org/2000/svg">
<g clip-path="url(#clip0_189_37)">
<path fill-rule="evenodd" clip-rule="evenodd" d="M13.565 5.20654H33.4359C40.8979 5.20654 47 11.3613 47 18.8803V39.1191C47 46.6398 40.8979 52.7928 33.4359 52.7928H13.565C6.10295 52.7928 0 46.6398 0 39.1191V18.8803C0 11.3613 6.10288 5.20654 13.565 5.20654ZM23.3734 16.152C30.6247 16.152 36.509 22.1615 36.509 29.5671C36.509 36.9735 30.6247 42.9822 23.3734 42.9822C16.1203 42.9822 10.2369 36.9735 10.2369 29.5671C10.2369 22.1615 16.1203 16.152 23.3734 16.152ZM23.3734 20.683C28.1753 20.683 32.0724 24.6622 32.0724 29.5671C32.0724 34.4719 28.1752 38.452 23.3734 38.452C18.5698 38.452 14.6735 34.472 14.6735 29.5671C14.6735 24.6622 18.5698 20.683 23.3734 20.683ZM36.0814 14.2926C37.2593 14.2926 38.2143 15.2679 38.2143 16.47C38.2143 17.673 37.2593 18.6483 36.0814 18.6483C34.9043 18.6483 33.9493 17.673 33.9493 16.47C33.9493 15.2679 34.9043 14.2926 36.0814 14.2926ZM15.1887 9.09364H31.8139C38.0564 9.09364 43.1619 14.282 43.1619 20.622V37.6859C43.1619 44.0258 38.0565 49.2133 31.8139 49.2133H15.1887C8.94616 49.2133 3.8399 44.0258 3.8399 37.6858V20.6219C3.8399 14.282 8.94616 9.09364 15.1887 9.09364Z" fill="#F2F2F2"/>
</g>
<path fill-rule="evenodd" clip-rule="evenodd" d="M100.937 13.0626H107.499V5H100.937C95.8718 5 91.7506 9.21937 91.7506 14.4053V18.4366H86.5V26.5H91.749V48H99.6249V26.5H106.187L107.499 18.4366H99.6249V14.4053C99.6249 13.6768 100.226 13.0618 100.937 13.0618V13.0626L100.937 13.0626Z" fill="#F2F2F2"/>
<g clip-path="url(#clip1_189_37)">
<path fill-rule="evenodd" clip-rule="evenodd" d="M189.594 0H151.406C148.983 0 147 2.025 147 4.5V43.5C147 45.975 148.983 48 151.406 48H189.594C192.017 48 194 45.975 194 43.5V4.5C194 2.025 192.017 0 189.594 0ZM164.624 38.9999H158.75V17.9994H164.624V38.9999ZM161.687 14.999C160.063 14.999 158.75 13.6579 158.75 11.9996C158.75 10.3404 160.063 8.99925 161.687 8.99925C163.311 8.99925 164.624 10.3404 164.624 11.9996C164.624 13.6578 163.311 14.999 161.687 14.999ZM185.187 38.9999H179.313V27.0004C179.313 25.3412 177.999 24.0001 176.376 24.0001C174.751 24.0001 173.438 25.3412 173.438 27.0004V38.9999H167.562V17.9994H173.438V21.7226C174.648 20.0235 176.504 17.9994 178.578 17.9994C182.232 17.9994 185.187 21.3567 185.187 25.4998V38.9999H185.187Z" fill="#F2F2F2"/>
</g>
<defs>
<clipPath id="clip0_189_37">
<rect width="47" height="48" fill="white" transform="translate(0 5)"/>
</clipPath>
<clipPath id="clip1_189_37">
<rect width="47" height="48" fill="white" transform="translate(147)"/>
</clipPath>
</defs>
</svg>
